<?xml version="1.0" standalone="no"?>
<!DOCTYPE svg PUBLIC "-//W3C//DTD SVG 20010904//EN"
 "http://www.w3.org/TR/2001/REC-SVG-20010904/DTD/svg10.dtd">
<svg version="1.0" xmlns="http://www.w3.org/2000/svg"
 width="900.000000pt" height="900.000000pt" viewBox="0 0 900.000000 900.000000"
 preserveAspectRatio="xMidYMid meet">
<metadata>
Created by potrace 1.10, written by Peter Selinger 2001-2011
</metadata>
<g transform="translate(0.000000,900.000000) scale(0.100000,-0.100000)"
fill="#000000" stroke="none" fill-opacity="0.25">
<path d="M2400 4478 c0 -876 4 -1599 9 -1607 5 -7 11 -9 14 -4 3 5 921 8 2136
7 l2130 -2 3 110 c2 60 1 111 -1 114 -2 2 -911 4 -2019 4 -1609 0 -2017 2
-2024 12 -4 7 -8 675 -8 1483 l0 1470 -120 3 -120 3 0 -1593z m1932 -1498 c3
-17 1 -33 -4 -36 -4 -3 -8 11 -8 30 0 44 6 47 12 6z"/>
<path d="M5640 4616 c0 -652 3 -1192 6 -1200 3 -9 11 -13 16 -10 6 4 118 6
249 6 l239 -1 0 1185 c0 651 1 1187 3 1192 1 4 -114 8 -255 10 l-257 2 -1
-1184z"/>
<path d="M4020 4481 c0 -577 3 -1056 6 -1065 3 -9 10 -13 15 -10 5 3 117 5
249 6 l240 0 0 1049 c0 577 1 1052 3 1057 1 4 -114 8 -255 10 l-258 2 0 -1049z"/>
<path d="M4830 4211 c0 -429 3 -786 6 -795 3 -9 9 -14 13 -12 4 3 116 6 249 8
l242 3 0 778 c0 427 1 780 3 785 1 4 -114 8 -255 10 l-258 2 0 -779z"/>
<path d="M3210 3938 c0 -282 4 -519 9 -527 6 -10 10 -10 16 -1 5 9 66 10 246
5 l239 -7 0 511 c0 281 1 514 3 519 1 4 -114 8 -255 10 l-258 2 0 -512z"/>
</g>
</svg>
