<?xml version="1.0" standalone="no"?>
<!DOCTYPE svg PUBLIC "-//W3C//DTD SVG 20010904//EN"
 "http://www.w3.org/TR/2001/REC-SVG-20010904/DTD/svg10.dtd">
<svg version="1.0" xmlns="http://www.w3.org/2000/svg"
 width="900.000000pt" height="900.000000pt" viewBox="0 0 900.000000 900.000000"
 preserveAspectRatio="xMidYMid meet">
<metadata>
Created by potrace 1.10, written by Peter Selinger 2001-2011
</metadata>
<g transform="translate(0.000000,900.000000) scale(0.100000,-0.100000)"
fill="#000000" stroke="none" fill-opacity="0.1">
<path d="M4435 6350 c-3 -5 -17 -10 -31 -10 -13 0 -24 -5 -24 -11 0 -5 -14
-23 -32 -39 -32 -30 -32 -30 -31 -125 l1 -95 -47 0 c-26 0 -56 -7 -67 -15 -10
-8 -35 -15 -55 -15 -19 0 -44 -7 -55 -15 -10 -8 -29 -15 -41 -15 -12 0 -28 -7
-37 -15 -8 -8 -24 -15 -36 -15 -11 0 -23 -7 -26 -15 -4 -8 -14 -15 -24 -15
-10 0 -23 -6 -29 -14 -7 -8 -23 -17 -36 -20 -14 -4 -25 -11 -25 -16 0 -6 -4
-10 -10 -10 -22 0 -217 -199 -229 -233 -2 -7 -7 -14 -10 -17 -10 -8 -51 -69
-51 -75 0 -4 -7 -13 -15 -21 -8 -9 -15 -24 -15 -33 0 -10 -7 -24 -15 -31 -8
-7 -15 -25 -15 -40 0 -16 -5 -30 -11 -32 -6 -2 -13 -33 -16 -68 -3 -36 -9 -69
-13 -75 -12 -16 -19 -135 -21 -330 -1 -129 -6 -188 -15 -207 -8 -15 -14 -56
-14 -91 0 -38 -6 -77 -16 -95 -9 -19 -14 -50 -12 -79 2 -34 -1 -52 -12 -60
-10 -7 -15 -29 -15 -62 0 -34 -4 -51 -12 -51 -7 0 -13 -12 -13 -27 0 -16 -7
-41 -15 -57 -8 -15 -15 -33 -15 -40 0 -6 -9 -28 -20 -49 -11 -20 -20 -43 -20
-51 0 -7 -7 -19 -15 -26 -8 -7 -15 -23 -15 -35 0 -12 -7 -28 -15 -35 -8 -7
-15 -20 -15 -30 0 -10 -7 -23 -15 -30 -8 -7 -15 -20 -15 -30 0 -10 -7 -20 -15
-24 -8 -3 -15 -12 -15 -21 0 -8 -4 -15 -9 -15 -5 0 -14 -13 -20 -30 -5 -16
-15 -30 -20 -30 -6 0 -11 -7 -11 -15 0 -8 -4 -15 -9 -15 -5 0 -14 -13 -20 -30
-5 -16 -15 -30 -20 -30 -6 0 -11 -6 -11 -13 0 -7 -13 -23 -30 -37 -16 -14 -30
-33 -30 -42 0 -10 -4 -18 -9 -18 -5 0 -37 -28 -72 -63 -35 -35 -72 -66 -81
-70 -28 -10 -23 -79 8 -133 31 -52 102 -114 132 -114 11 0 22 -6 24 -12 4 -10
116 -14 508 -16 389 -2 506 -5 512 -15 4 -6 8 -29 8 -49 0 -20 4 -39 9 -42 4
-3 11 -28 15 -56 4 -27 11 -50 16 -50 6 0 10 -11 10 -25 0 -13 6 -28 13 -32 8
-4 17 -15 21 -23 14 -31 32 -56 51 -76 31 -31 102 -84 113 -84 5 0 12 -7 16
-15 3 -8 17 -15 31 -15 14 0 25 -4 25 -9 0 -6 21 -13 48 -17 26 -3 53 -11 60
-16 15 -13 169 -13 185 0 7 5 32 12 57 15 24 3 46 11 48 16 2 6 15 11 28 11
14 0 27 7 30 15 4 8 11 15 18 15 6 0 25 13 41 28 17 15 38 31 48 35 9 3 17 12
17 20 0 7 14 26 30 42 17 16 30 34 30 41 0 6 7 14 15 18 8 3 15 16 15 30 0 13
5 26 11 28 6 2 13 25 16 51 3 26 10 50 14 53 5 3 9 22 9 42 0 20 4 43 8 49 6
10 127 13 512 15 392 2 504 6 508 16 2 6 14 12 26 12 24 0 126 86 126 106 0 6
7 17 15 24 10 8 15 30 15 61 0 45 -2 49 -35 65 -19 9 -35 20 -35 24 0 4 -31
39 -70 78 -38 39 -70 76 -70 82 0 6 -7 13 -15 16 -8 4 -15 10 -15 15 0 5 -8
18 -17 28 -35 39 -43 50 -43 66 0 8 -5 15 -11 15 -5 0 -15 14 -20 30 -6 17
-15 30 -20 30 -5 0 -9 7 -9 15 0 9 -7 18 -15 21 -8 4 -15 14 -15 24 0 10 -7
23 -15 30 -8 7 -15 20 -15 30 0 10 -6 23 -14 29 -8 7 -18 26 -21 42 -4 16 -11
29 -16 29 -5 0 -9 10 -9 23 0 13 -7 32 -15 43 -8 10 -15 27 -15 37 0 11 -6 31
-14 45 -8 15 -18 44 -21 65 -3 20 -10 37 -14 37 -5 0 -11 22 -14 49 -3 27 -10
58 -16 68 -5 10 -13 44 -16 75 -4 32 -11 60 -16 63 -5 4 -9 40 -9 81 0 42 -5
85 -12 97 -8 15 -14 108 -19 274 -3 145 -10 258 -16 265 -6 7 -13 42 -16 78
-3 35 -10 66 -16 68 -6 2 -11 14 -11 27 0 13 -7 30 -15 39 -8 8 -15 24 -15 35
0 11 -7 26 -15 35 -8 8 -15 19 -15 24 0 5 -9 17 -20 27 -11 10 -20 23 -20 30
0 7 -11 24 -25 39 -14 15 -25 31 -25 37 0 5 -6 9 -14 9 -8 0 -18 9 -21 21 -9
26 -83 99 -101 99 -8 0 -14 7 -14 15 0 8 -5 15 -10 15 -6 0 -21 11 -34 25 -13
14 -30 25 -38 25 -8 0 -23 9 -33 20 -10 11 -26 20 -35 20 -10 0 -20 7 -24 15
-3 8 -15 15 -26 15 -12 0 -28 7 -36 15 -9 8 -25 15 -37 15 -12 0 -31 7 -41 15
-11 8 -37 15 -57 15 -21 0 -39 5 -41 12 -2 6 -31 13 -65 16 l-62 4 2 93 c1 89
0 95 -25 120 -15 15 -32 24 -37 20 -7 -3 -8 0 -5 9 4 10 -1 18 -12 22 -11 3
-27 10 -36 15 -24 12 -105 12 -113 -1z m265 -509 c0 -5 21 -12 47 -16 26 -4
56 -13 67 -21 11 -8 30 -14 42 -14 12 0 27 -7 34 -15 7 -8 21 -15 31 -15 10 0
21 -5 24 -11 4 -5 17 -14 28 -20 12 -5 30 -15 41 -21 20 -14 146 -137 146
-143 0 -2 12 -17 26 -32 15 -15 31 -40 36 -55 6 -16 14 -28 19 -28 5 0 9 -8 9
-19 0 -10 7 -24 15 -31 8 -7 15 -25 15 -41 0 -15 6 -34 14 -42 11 -10 16 -63
21 -218 4 -112 11 -208 15 -214 4 -5 10 -63 13 -128 3 -65 10 -124 16 -131 6
-6 11 -42 12 -79 1 -37 8 -79 15 -93 8 -15 14 -42 14 -61 0 -19 6 -49 14 -66
8 -18 17 -50 20 -72 3 -22 10 -41 16 -43 5 -2 10 -16 10 -30 0 -15 7 -40 15
-56 8 -15 15 -39 15 -51 0 -13 7 -30 15 -39 8 -8 15 -24 15 -35 0 -11 7 -26
15 -35 8 -8 15 -24 15 -35 0 -11 6 -26 13 -33 8 -7 17 -26 21 -41 3 -15 11
-27 16 -27 6 0 10 -8 10 -19 0 -10 7 -24 15 -31 8 -7 15 -21 15 -32 0 -10 6
-21 14 -24 8 -3 17 -16 20 -30 4 -13 11 -24 16 -24 6 0 10 -7 10 -15 0 -9 6
-18 14 -21 8 -3 17 -16 20 -30 4 -13 11 -24 16 -24 6 0 10 -7 10 -15 0 -9 7
-18 15 -21 8 -4 15 -12 15 -20 0 -8 7 -14 15 -14 8 0 15 -6 15 -14 0 -8 14
-26 31 -40 19 -16 29 -32 25 -41 -6 -16 42 -15 -1926 -15 -915 0 -840 -2 -847
16 -4 11 5 24 26 41 17 13 31 31 31 39 0 8 7 14 15 14 8 0 15 7 15 15 0 8 4
15 9 15 10 0 34 38 47 73 3 9 10 17 15 17 5 0 14 10 19 23 15 33 33 61 48 70
6 4 12 19 12 31 0 13 7 26 15 30 8 3 15 15 15 26 0 11 4 20 10 20 5 0 13 12
16 27 4 15 13 34 21 41 7 7 13 22 13 33 0 11 7 27 15 35 8 9 15 24 15 35 0 11
7 27 15 35 8 9 15 27 15 42 0 15 7 36 15 46 8 11 15 34 15 52 0 18 5 34 10 36
6 2 13 21 16 43 3 22 12 54 20 72 8 17 14 51 14 76 0 25 4 47 9 49 6 2 14 39
20 83 6 44 15 105 20 135 5 30 10 92 10 138 1 45 5 82 10 82 4 0 11 93 15 208
4 114 12 209 17 210 5 2 12 21 15 43 4 21 13 44 20 50 8 6 14 19 14 29 0 10 7
23 15 30 8 7 15 18 15 24 0 6 14 26 30 44 17 18 30 35 30 37 0 9 102 105 110
105 6 0 10 6 10 14 0 7 8 17 18 20 23 9 61 31 75 45 6 6 19 11 28 11 9 0 22 6
28 14 7 8 27 17 46 20 19 4 35 11 35 15 0 5 24 11 52 14 29 4 54 11 56 17 5
13 422 14 422 1z m-524 -2657 c18 -5 22 -15 26 -62 3 -31 10 -58 16 -60 7 -2
12 -13 12 -24 0 -43 114 -157 158 -158 9 0 26 -7 36 -15 11 -8 39 -15 62 -15
41 0 43 -2 49 -34 12 -61 -24 -93 -75 -66 -11 6 -43 12 -72 15 -33 3 -55 10
-60 20 -5 8 -18 15 -30 15 -12 0 -39 20 -62 45 -24 25 -48 45 -54 45 -7 0 -12
7 -12 15 0 8 -4 15 -10 15 -5 0 -10 11 -10 24 0 13 -6 29 -14 35 -8 7 -17 35
-21 63 -4 28 -13 65 -20 81 -11 28 -11 32 9 48 22 19 38 22 72 13z"/>
</g>
</svg>
