<?xml version="1.0" standalone="no"?>
<!DOCTYPE svg PUBLIC "-//W3C//DTD SVG 20010904//EN"
 "http://www.w3.org/TR/2001/REC-SVG-20010904/DTD/svg10.dtd">
<svg version="1.0" xmlns="http://www.w3.org/2000/svg"
 width="900.000000pt" height="900.000000pt" viewBox="0 0 900.000000 900.000000"
 preserveAspectRatio="xMidYMid meet">
<metadata>
Created by potrace 1.10, written by Peter Selinger 2001-2011
</metadata>
<g transform="translate(0.000000,900.000000) scale(0.100000,-0.100000)"
fill="#000000" stroke="none" fill-opacity="0.1">
<path d="M3811 6625 c-38 -17 -137 -20 -146 -5 -3 6 -35 10 -70 10 -35 0 -67
-4 -70 -10 -3 -5 -13 -10 -21 -10 -15 0 -114 -98 -114 -113 0 -5 -7 -15 -15
-23 -8 -9 -15 -24 -15 -33 0 -10 -7 -24 -15 -31 -8 -7 -15 -20 -15 -29 0 -9
-7 -25 -15 -35 -8 -11 -15 -28 -15 -39 0 -10 -7 -25 -15 -33 -8 -9 -15 -24
-15 -34 0 -10 -7 -20 -15 -24 -8 -3 -15 -15 -15 -26 0 -11 -7 -23 -15 -26 -8
-4 -15 -12 -15 -20 0 -7 -13 -23 -30 -36 -16 -12 -30 -29 -30 -39 0 -9 -7 -19
-15 -23 -8 -3 -15 -17 -15 -31 0 -14 -4 -25 -10 -25 -5 0 -10 -7 -10 -15 0 -8
5 -15 10 -15 14 0 13 -177 -1 -182 -6 -2 -13 -26 -16 -53 -3 -28 -12 -59 -19
-70 -8 -11 -14 -27 -14 -36 0 -9 -7 -22 -15 -29 -8 -7 -15 -25 -15 -41 0 -16
-4 -29 -10 -29 -5 0 -13 -12 -16 -27 -4 -15 -13 -34 -21 -41 -7 -7 -13 -24
-13 -38 0 -13 -4 -24 -9 -24 -5 0 -13 -10 -17 -22 -3 -11 -31 -44 -60 -71 -30
-27 -54 -55 -54 -63 0 -7 -7 -20 -17 -29 -13 -14 -17 -41 -18 -154 -1 -111 -4
-142 -18 -161 -9 -14 -17 -36 -17 -50 0 -14 -7 -34 -15 -44 -8 -11 -15 -28
-15 -39 0 -10 -7 -25 -15 -33 -8 -9 -15 -24 -15 -35 0 -11 -7 -27 -15 -35 -8
-9 -15 -26 -15 -40 0 -13 -4 -24 -10 -24 -5 0 -13 -12 -16 -27 -4 -15 -13 -34
-21 -41 -7 -7 -13 -19 -13 -27 0 -7 -7 -15 -15 -19 -8 -3 -15 -10 -15 -16 0
-6 -13 -25 -30 -43 -29 -31 -30 -34 -30 -138 0 -75 -4 -115 -15 -135 -8 -16
-15 -41 -15 -56 0 -16 -4 -28 -10 -28 -5 0 -13 -18 -16 -40 -4 -22 -13 -45
-20 -51 -8 -6 -14 -21 -14 -33 0 -11 -7 -30 -15 -40 -8 -11 -15 -26 -15 -34 0
-7 -7 -20 -15 -28 -8 -9 -15 -26 -15 -40 0 -13 -3 -24 -8 -24 -4 0 -19 -21
-32 -47 -14 -27 -31 -52 -37 -56 -7 -4 -13 -15 -13 -22 0 -8 -4 -15 -9 -15 -5
0 -13 -10 -17 -22 -4 -13 -10 -25 -13 -28 -4 -3 -17 -22 -30 -42 -17 -28 -21
-46 -16 -68 4 -16 11 -30 16 -30 5 0 9 -27 9 -60 0 -33 -4 -60 -9 -60 -5 0
-12 -35 -16 -77 -3 -43 -13 -90 -21 -105 -19 -35 -19 -154 1 -192 8 -15 15
-43 15 -61 0 -19 7 -40 15 -49 8 -8 15 -23 15 -34 0 -11 6 -25 14 -31 8 -7 17
-23 20 -36 4 -14 13 -25 21 -25 9 0 12 -6 9 -15 -4 -8 1 -17 10 -21 9 -3 16
-10 16 -14 0 -11 159 -170 170 -170 4 0 10 -7 14 -15 3 -8 15 -15 26 -15 11 0
23 -7 26 -15 4 -8 14 -15 24 -15 10 0 23 -7 30 -15 7 -8 23 -15 35 -15 12 0
28 -7 35 -15 7 -9 29 -15 54 -15 23 0 48 -6 55 -12 17 -18 2746 -19 2782 -1
13 6 42 14 64 17 22 3 41 10 43 16 2 5 12 10 22 10 9 0 23 7 30 15 7 8 18 15
25 15 6 0 20 9 30 20 10 11 24 20 32 20 7 0 13 3 13 8 0 4 16 18 35 31 19 13
35 28 35 33 0 10 16 31 43 56 9 9 17 22 17 29 0 7 4 13 10 13 5 0 13 12 16 28
4 15 13 36 20 47 8 11 14 32 14 47 0 16 4 28 10 28 5 0 12 17 15 38 3 20 13
49 21 64 8 14 14 39 14 55 0 15 7 37 15 47 8 11 15 34 15 50 0 17 7 40 15 50
8 11 15 34 15 50 0 17 7 40 15 50 8 11 15 34 15 50 0 17 7 40 15 50 8 11 15
33 15 49 0 15 7 35 15 43 8 9 15 33 15 54 0 21 5 40 11 42 5 2 13 24 16 48 4
25 12 51 20 58 7 7 13 29 13 48 0 20 7 42 15 50 8 9 15 28 15 44 0 15 7 41 15
56 8 16 15 40 15 54 0 14 7 34 15 44 8 11 15 35 15 54 0 18 7 40 15 48 8 9 15
30 15 47 0 18 7 41 15 51 8 11 15 34 15 50 0 17 7 40 15 50 8 11 15 34 15 50
0 17 7 40 15 50 8 11 15 34 15 52 0 18 5 34 11 36 5 2 13 24 16 48 3 25 10 48
15 51 5 3 12 26 15 50 4 24 12 50 20 57 7 7 13 29 13 48 0 20 7 42 15 50 8 9
15 30 15 47 0 18 7 41 15 51 8 11 15 34 15 50 0 17 7 40 15 50 8 11 15 35 15
54 0 18 7 40 15 48 8 9 15 30 15 47 0 18 7 41 15 51 8 11 15 34 15 50 0 17 7
40 15 50 8 11 15 34 15 52 0 18 5 34 11 36 6 2 14 27 17 56 2 29 8 52 13 52
12 0 11 127 -1 135 -5 3 -10 21 -10 39 0 19 -7 39 -15 46 -8 7 -15 21 -15 32
0 10 -7 21 -15 24 -8 4 -15 11 -15 18 0 6 -13 20 -30 29 -16 10 -30 22 -30 27
0 5 -13 15 -29 23 -28 14 -29 14 -35 -16 -3 -16 -6 -50 -6 -74 0 -26 -6 -51
-15 -59 -8 -9 -15 -32 -15 -52 0 -20 -7 -46 -15 -56 -8 -11 -15 -34 -15 -51 0
-17 -5 -36 -11 -42 -6 -6 -15 -29 -20 -50 -16 -74 -32 -128 -45 -155 -8 -14
-14 -38 -14 -52 0 -14 -4 -26 -10 -26 -5 0 -10 -12 -10 -27 0 -16 -6 -40 -14
-55 -8 -14 -17 -45 -21 -67 -4 -23 -11 -43 -16 -47 -5 -3 -9 -17 -9 -32 0 -15
-7 -40 -15 -56 -8 -15 -15 -38 -15 -50 0 -12 -9 -38 -20 -59 -11 -20 -20 -50
-20 -65 0 -15 -5 -33 -11 -39 -5 -5 -12 -26 -14 -46 -1 -20 -10 -46 -19 -59
-9 -12 -16 -37 -16 -55 0 -18 -4 -33 -9 -33 -6 0 -13 -21 -17 -47 -4 -26 -13
-53 -20 -61 -8 -7 -14 -29 -14 -48 0 -20 -7 -42 -15 -50 -8 -9 -15 -33 -15
-55 0 -21 -4 -39 -10 -39 -5 0 -12 -17 -15 -37 -4 -21 -13 -52 -21 -70 -8 -17
-14 -43 -14 -58 0 -14 -7 -33 -15 -41 -8 -9 -15 -30 -15 -47 0 -18 -7 -41 -15
-51 -8 -11 -15 -34 -15 -52 0 -18 -5 -34 -11 -36 -5 -2 -13 -24 -16 -48 -3
-25 -10 -48 -16 -51 -5 -4 -12 -27 -14 -53 -3 -25 -12 -51 -19 -57 -8 -6 -14
-27 -14 -46 0 -19 -7 -41 -15 -49 -8 -9 -15 -32 -15 -52 0 -20 -7 -46 -15 -56
-8 -11 -15 -33 -15 -49 0 -15 -7 -35 -15 -43 -8 -9 -15 -32 -15 -52 0 -20 -7
-46 -15 -56 -8 -11 -15 -34 -15 -52 0 -17 -7 -37 -15 -44 -8 -7 -15 -23 -15
-35 0 -13 -7 -36 -15 -51 -8 -16 -15 -40 -15 -54 0 -14 -7 -34 -15 -44 -8 -11
-15 -26 -15 -33 0 -17 -81 -92 -100 -93 -9 0 -25 -7 -37 -15 -19 -13 -196 -15
-1456 -15 -1265 -1 -1437 1 -1463 15 -16 8 -39 15 -50 15 -12 0 -24 7 -28 15
-3 8 -13 15 -23 15 -20 0 -73 48 -73 67 0 8 -7 16 -15 19 -8 4 -15 12 -15 19
0 7 -7 18 -15 25 -10 8 -15 30 -15 64 0 44 5 56 34 88 l34 37 1320 3 c949 2
1323 6 1333 14 8 6 39 14 69 17 30 4 56 11 58 17 2 5 15 10 28 10 14 0 27 7
30 15 4 8 12 15 20 15 8 0 14 6 14 14 0 8 7 16 15 20 8 3 15 12 15 21 0 8 4
15 10 15 5 0 12 11 16 25 3 14 10 25 15 25 5 0 9 8 9 18 0 11 9 29 20 42 11
13 20 34 20 47 0 14 7 31 15 39 8 9 15 27 15 40 0 14 7 32 15 40 8 9 15 30 15
47 0 18 7 41 15 51 8 11 15 34 15 52 0 18 5 34 11 36 6 2 13 25 16 51 3 26 9
47 14 47 4 0 11 17 14 38 4 20 13 51 21 69 8 17 14 45 14 61 0 17 5 32 11 34
5 2 13 24 16 48 3 25 10 48 15 51 5 3 12 26 15 50 3 24 10 47 16 50 5 4 12 27
14 53 3 25 9 46 14 46 4 0 11 17 14 38 4 20 13 51 21 69 8 17 14 43 14 58 0
14 7 33 15 41 8 9 15 31 15 50 0 20 7 42 15 50 8 9 15 31 15 50 0 20 7 42 15
50 8 9 15 28 15 44 0 15 7 41 15 56 8 16 15 40 15 54 0 14 7 34 15 44 8 11 15
34 15 50 0 17 7 40 15 50 8 11 15 34 15 50 0 17 7 40 15 50 8 11 15 34 15 50
0 17 7 40 15 50 8 11 15 34 15 52 0 18 5 34 11 36 6 2 13 25 16 51 3 26 9 47
14 47 4 0 11 21 15 48 4 26 11 50 16 53 5 3 12 26 15 50 3 24 10 47 16 50 5 4
12 27 14 50 2 24 8 45 13 47 5 2 12 20 16 40 3 20 12 51 20 69 8 17 14 42 14
55 0 12 7 32 15 42 8 11 15 34 15 50 0 17 7 40 15 50 8 11 15 32 15 47 0 15 7
40 15 55 8 16 15 41 15 55 0 14 7 40 16 58 11 21 14 47 11 79 -7 65 -30 149
-45 164 -6 6 -12 20 -12 30 0 9 -8 22 -18 27 -10 5 -24 21 -32 35 -7 14 -19
26 -26 26 -6 0 -14 7 -18 15 -3 8 -14 15 -24 15 -11 0 -25 7 -32 15 -7 9 -19
14 -25 11 -7 -2 -25 3 -41 12 -27 16 -123 17 -1139 19 -961 2 -1115 1 -1144
-12z m1899 -705 c15 -15 20 -33 20 -74 0 -30 -4 -58 -10 -61 -5 -3 -10 -14
-10 -23 0 -10 -9 -34 -20 -55 -11 -20 -20 -44 -20 -53 0 -9 -8 -23 -17 -30
-15 -11 -16 -16 -5 -34 12 -19 11 -20 -8 -8 -18 11 -23 10 -34 -4 -12 -17 -68
-18 -927 -18 l-914 1 -17 38 c-22 46 -22 49 -3 67 8 9 15 30 15 49 0 18 5 35
10 37 6 2 13 21 17 43 3 22 12 46 20 53 7 7 13 19 13 26 0 6 10 18 21 26 12 8
27 20 33 27 8 9 220 12 914 13 889 0 902 0 922 -20z m-224 -725 c20 -30 12
-118 -12 -142 -7 -8 -14 -30 -14 -48 0 -19 -4 -36 -9 -39 -5 -3 -12 -17 -15
-31 -3 -13 -22 -40 -41 -60 l-36 -35 -915 0 -914 0 -11 28 c-12 30 -3 133 13
143 5 3 12 25 15 48 3 22 9 41 13 41 4 0 11 11 14 25 4 14 21 40 39 59 l32 34
912 1 913 1 16 -25z m-3016 -2415 c0 -14 -7 -20 -22 -20 -20 0 -21 1 -3 20 10
11 20 20 22 20 1 0 3 -9 3 -20z"/>
</g>
</svg>
