<?xml version="1.0" standalone="no"?>
<!DOCTYPE svg PUBLIC "-//W3C//DTD SVG 20010904//EN"
 "http://www.w3.org/TR/2001/REC-SVG-20010904/DTD/svg10.dtd">
<svg version="1.0" xmlns="http://www.w3.org/2000/svg"
 width="900.000000pt" height="900.000000pt" viewBox="0 0 900.000000 900.000000"
 preserveAspectRatio="xMidYMid meet">
<metadata>
Created by potrace 1.10, written by Peter Selinger 2001-2011
</metadata>
<g transform="translate(0.000000,900.000000) scale(0.100000,-0.100000)"
fill="#000000" stroke="none" fill-opacity="0.25">
<path d="M5415 6360 c-4 -6 -17 -16 -28 -21 -34 -15 -68 -36 -80 -48 -6 -6
-19 -11 -29 -11 -9 0 -21 -6 -25 -12 -4 -7 -25 -22 -45 -32 -36 -18 -50 -36
-28 -36 6 0 10 -15 10 -34 0 -19 7 -41 15 -50 8 -8 15 -23 15 -33 0 -11 7 -28
15 -39 8 -10 15 -29 15 -42 0 -12 7 -25 15 -28 16 -7 22 -74 6 -74 -5 0 -13
-10 -17 -22 -3 -12 -13 -28 -20 -36 -8 -7 -14 -19 -14 -26 0 -9 -24 -15 -77
-20 -43 -4 -81 -12 -84 -18 -4 -6 -33 -10 -65 -10 -93 2 -95 -1 -95 -165 l0
-138 30 0 c17 0 31 -5 31 -11 0 -15 47 -24 121 -24 32 0 61 -4 64 -10 3 -5 20
-10 36 -10 22 0 32 -7 41 -25 6 -14 15 -25 20 -25 4 0 8 -9 8 -20 0 -11 7 -23
15 -26 9 -4 15 -19 15 -39 0 -20 -6 -35 -15 -39 -8 -3 -15 -15 -15 -26 0 -12
-7 -28 -15 -36 -8 -9 -15 -24 -15 -35 0 -11 -6 -30 -14 -42 -7 -12 -16 -41
-19 -65 -4 -34 -2 -45 11 -49 10 -4 21 -12 25 -20 4 -7 16 -13 26 -13 11 0 21
-7 25 -15 3 -8 15 -15 26 -15 11 0 20 -4 20 -10 0 -5 11 -12 24 -16 14 -3 27
-12 30 -20 10 -26 60 -16 94 19 18 18 32 38 32 45 0 7 7 12 15 12 8 0 15 6 15
14 0 8 7 16 15 20 8 3 15 12 15 21 0 8 4 15 9 15 5 0 13 10 17 23 8 24 37 48
71 58 16 5 20 3 16 -7 -4 -10 3 -14 21 -14 14 0 26 5 26 10 0 13 17 13 33 0
46 -39 64 -58 70 -73 3 -9 11 -17 17 -17 5 0 10 -8 10 -18 0 -10 13 -29 30
-42 16 -14 29 -31 30 -37 0 -7 7 -13 15 -13 8 0 15 -7 15 -15 0 -11 11 -15 35
-15 22 0 38 6 41 15 4 8 15 15 25 15 11 0 22 7 25 15 4 8 14 15 24 15 10 0 23
7 30 15 7 8 18 15 26 15 7 0 17 6 21 14 4 8 17 16 28 18 16 3 19 10 17 33 -2
17 -8 32 -13 33 -5 2 -9 16 -9 32 0 16 -7 35 -15 44 -8 8 -15 24 -15 35 0 11
-6 26 -13 33 -35 37 -35 129 0 151 7 4 13 19 13 32 0 20 6 25 38 31 20 4 42
10 47 14 6 4 50 10 100 13 51 3 91 10 93 16 2 6 15 11 28 11 l24 0 0 139 c0
167 -2 171 -90 171 -32 0 -61 4 -64 9 -3 5 -39 12 -78 16 -78 8 -98 17 -98 46
0 10 -8 22 -17 28 -25 14 -25 121 0 145 9 10 17 26 17 37 0 11 7 27 15 35 8 9
15 28 15 43 0 16 7 34 15 41 8 7 15 19 15 27 0 18 -39 52 -61 53 -9 0 -19 7
-23 15 -3 8 -12 15 -19 15 -8 0 -20 7 -27 15 -7 8 -21 15 -31 15 -11 0 -19 4
-19 10 0 5 -11 12 -25 16 -14 3 -25 10 -25 15 0 24 -33 3 -81 -53 -30 -33 -62
-68 -71 -77 -10 -8 -18 -21 -18 -28 0 -7 -4 -13 -10 -13 -5 0 -12 -11 -16 -25
-6 -24 -9 -25 -88 -25 -82 0 -82 0 -114 36 -18 20 -32 38 -32 40 0 2 -8 12
-17 23 -10 10 -29 33 -43 52 -49 65 -77 91 -85 79z m411 -494 c8 -9 20 -16 25
-16 13 0 89 -81 89 -94 0 -5 8 -18 18 -29 27 -30 25 -210 -3 -251 -29 -43
-114 -126 -129 -126 -7 0 -21 -7 -32 -15 -21 -16 -184 -22 -184 -6 0 5 -13 12
-29 16 -16 3 -35 13 -42 21 -6 8 -18 14 -25 14 -8 0 -14 7 -14 15 0 8 -7 15
-15 15 -8 0 -15 7 -15 15 0 9 -7 18 -15 21 -8 4 -15 14 -15 23 0 10 -7 26 -15
37 -10 13 -14 44 -14 99 0 55 4 86 14 99 8 11 15 25 15 32 0 15 83 101 121
126 36 23 63 27 162 23 62 -3 92 -8 103 -19z"/>
<path d="M3577 5853 c-4 -3 -7 -18 -7 -33 0 -14 -5 -31 -11 -37 -6 -6 -14 -50
-16 -97 -3 -48 -10 -89 -14 -92 -5 -3 -9 -20 -9 -39 0 -58 -16 -85 -49 -85
-16 0 -36 -7 -45 -15 -8 -8 -20 -15 -26 -15 -7 0 -25 -8 -42 -17 -28 -17 -30
-17 -39 0 -6 9 -15 17 -20 17 -6 0 -24 13 -42 30 -18 16 -37 30 -43 30 -7 0
-14 7 -18 15 -3 8 -10 15 -16 15 -11 0 -51 31 -86 68 -28 29 -43 28 -92 -8
-61 -44 -272 -258 -272 -275 0 -8 -4 -15 -10 -15 -5 0 -10 -7 -10 -15 0 -8 5
-15 10 -15 6 0 10 -8 10 -18 0 -10 13 -29 30 -42 16 -14 29 -30 30 -35 0 -6 8
-18 18 -27 24 -24 37 -40 45 -60 3 -10 11 -18 17 -18 5 0 10 -6 10 -14 0 -8 7
-16 15 -20 9 -3 15 -19 15 -41 0 -20 -7 -43 -15 -51 -8 -9 -15 -26 -15 -40 0
-13 -4 -24 -10 -24 -5 0 -13 -15 -18 -32 -8 -33 -9 -33 -79 -39 -39 -3 -78
-10 -85 -17 -8 -6 -52 -13 -97 -14 -121 -3 -121 -3 -121 -245 0 -232 3 -243
76 -243 27 0 55 -5 61 -11 6 -6 50 -14 97 -16 47 -3 86 -10 86 -14 0 -5 11 -9
25 -9 16 0 28 -7 31 -17 3 -10 12 -31 20 -46 7 -16 14 -35 14 -42 0 -8 7 -21
16 -30 9 -8 16 -32 16 -52 0 -23 -6 -39 -16 -45 -9 -5 -16 -14 -16 -21 -1 -7
-14 -23 -30 -37 -17 -13 -30 -28 -30 -32 0 -10 -16 -31 -42 -56 -10 -9 -18
-22 -18 -28 0 -7 -7 -14 -15 -18 -10 -3 -15 -19 -15 -46 0 -27 5 -43 15 -46 8
-4 15 -10 15 -14 0 -12 249 -260 261 -260 5 0 9 -4 9 -10 0 -5 9 -10 20 -10
11 0 20 5 20 10 0 6 6 10 13 10 7 0 20 8 29 18 24 24 40 37 61 45 9 3 17 11
17 17 0 5 5 10 10 10 6 0 19 8 29 18 32 28 45 38 64 45 9 3 17 11 17 17 0 16
66 12 80 -5 7 -8 19 -15 28 -15 8 0 32 -8 53 -17 37 -18 49 -37 49 -80 0 -13
4 -23 9 -23 4 0 11 -39 14 -87 4 -47 11 -91 17 -97 5 -5 10 -26 10 -46 0 -55
19 -60 243 -60 192 0 192 0 220 25 24 23 27 33 27 88 0 35 4 67 9 73 6 5 14
49 18 98 l8 90 33 8 c17 5 32 13 32 18 0 6 11 10 24 10 14 0 31 7 40 15 8 8
31 15 51 15 22 0 38 -6 41 -15 4 -8 12 -15 20 -15 8 0 14 -7 14 -15 0 -8 6
-15 14 -15 8 0 16 -7 20 -15 3 -8 11 -15 18 -15 8 0 28 -13 46 -30 18 -17 37
-30 42 -30 4 0 10 -7 14 -15 3 -8 12 -15 20 -15 8 0 16 -5 18 -12 9 -25 81 25
187 130 166 166 194 209 151 232 -11 6 -20 17 -20 25 0 7 -17 31 -39 53 -21
21 -42 49 -45 60 -4 12 -12 22 -17 22 -5 0 -9 7 -9 15 0 9 -7 18 -15 21 -8 4
-15 12 -15 20 0 7 -8 17 -17 23 -17 9 -17 11 0 39 9 17 17 37 17 45 0 9 5 17
11 19 6 2 14 22 18 43 6 39 7 40 61 49 30 5 57 12 60 16 3 4 45 10 93 13 49 3
94 10 100 16 7 5 26 11 42 13 l30 3 2 223 c3 204 1 223 -15 229 -9 4 -19 10
-23 15 -3 4 -48 10 -99 14 -52 3 -100 10 -106 15 -6 5 -33 12 -60 15 -52 7
-84 31 -84 61 0 10 -6 27 -13 38 -7 11 -19 38 -26 61 -11 35 -11 45 3 72 9 18
21 32 26 32 6 0 10 6 10 14 0 8 7 16 15 20 8 3 15 11 15 19 0 7 13 26 28 43
49 51 82 100 82 122 0 12 -4 22 -10 22 -5 0 -10 7 -10 15 0 9 -7 18 -15 21 -8
4 -15 12 -15 20 0 8 -7 14 -15 14 -8 0 -15 7 -15 15 0 8 -5 15 -10 15 -14 0
-140 125 -140 139 0 6 -7 11 -15 11 -8 0 -15 7 -15 15 0 8 -6 15 -14 15 -8 0
-16 7 -20 15 -3 8 -17 15 -31 15 -14 0 -28 -7 -31 -15 -4 -8 -13 -15 -20 -15
-8 0 -17 -7 -20 -15 -4 -8 -13 -15 -20 -15 -8 0 -17 -7 -20 -15 -4 -8 -11 -15
-18 -15 -6 0 -24 -14 -40 -30 -16 -17 -38 -30 -48 -30 -10 0 -21 -7 -24 -15
-4 -8 -13 -15 -20 -15 -8 0 -17 -7 -20 -15 -4 -8 -12 -15 -19 -15 -7 0 -15 7
-19 15 -3 8 -13 15 -23 15 -10 0 -27 7 -37 15 -11 8 -28 15 -38 15 -34 0 -55
34 -62 104 -4 36 -12 68 -17 71 -5 4 -9 41 -9 84 0 64 -4 83 -21 105 l-20 26
-218 0 c-120 0 -221 -3 -224 -7z m401 -792 c2 -6 19 -13 37 -17 19 -3 36 -12
39 -20 3 -8 14 -14 24 -14 10 0 32 -13 48 -30 16 -16 34 -30 40 -30 13 0 64
-52 64 -66 0 -5 14 -22 30 -38 17 -16 30 -38 30 -48 0 -10 7 -21 15 -24 8 -4
15 -15 15 -27 0 -11 8 -29 18 -40 15 -16 17 -41 17 -176 0 -132 -3 -160 -17
-181 -10 -13 -18 -35 -18 -47 0 -13 -4 -23 -9 -23 -5 0 -13 -10 -17 -22 -7
-22 -15 -34 -46 -69 -10 -10 -18 -23 -18 -27 0 -16 -57 -72 -73 -72 -10 0 -17
-5 -17 -11 0 -5 -13 -15 -30 -20 -16 -6 -30 -15 -30 -19 0 -4 -11 -11 -25 -14
-14 -4 -25 -11 -25 -16 0 -6 -12 -10 -28 -10 -15 0 -37 -7 -48 -15 -25 -17
-257 -23 -277 -7 -6 5 -28 12 -48 16 -21 4 -42 13 -49 21 -7 8 -20 15 -30 15
-10 0 -23 7 -30 15 -7 8 -18 14 -24 13 -6 -2 -20 6 -32 17 -11 11 -31 30 -45
42 -29 26 -49 50 -49 59 0 3 -13 23 -30 44 -16 21 -30 45 -30 53 0 8 -6 20
-14 26 -8 7 -17 30 -21 52 -4 21 -11 41 -16 45 -5 3 -9 62 -9 132 1 96 4 132
15 146 8 11 15 32 15 48 0 15 4 28 9 28 5 0 14 12 20 28 20 47 42 82 52 82 5
0 9 4 9 10 0 5 16 25 35 45 20 19 40 35 45 35 6 0 10 6 10 14 0 7 23 24 50 37
28 13 50 27 50 31 0 5 8 8 18 8 10 0 27 6 38 14 28 20 77 24 229 21 81 -2 131
-7 133 -14z"/>
<path d="M5415 4200 c-4 -6 -17 -16 -28 -21 -34 -15 -68 -36 -80 -48 -6 -6
-19 -11 -29 -11 -9 0 -21 -6 -25 -12 -9 -15 -41 -36 -65 -44 -19 -7 -25 -24
-8 -24 6 0 10 -14 10 -31 0 -17 6 -43 13 -57 8 -15 21 -42 30 -60 9 -19 17
-42 17 -53 0 -11 7 -22 15 -25 9 -4 15 -19 15 -39 0 -18 -7 -38 -15 -45 -8 -7
-15 -19 -15 -26 0 -8 -4 -14 -10 -14 -5 0 -12 -11 -16 -24 -6 -25 -40 -36
-116 -36 -20 0 -38 -4 -40 -9 -1 -5 -36 -11 -77 -14 -49 -3 -78 -10 -85 -19
-7 -9 -10 -66 -8 -151 3 -134 4 -137 26 -137 12 0 27 -5 34 -12 6 -6 51 -14
99 -16 49 -2 92 -8 97 -13 6 -5 20 -9 33 -9 15 0 27 -9 35 -25 6 -14 15 -25
20 -25 4 0 8 -9 8 -20 0 -11 7 -23 15 -26 17 -7 21 -74 5 -74 -5 0 -13 -12
-16 -27 -4 -15 -13 -34 -21 -41 -7 -7 -13 -22 -13 -33 0 -11 -6 -30 -14 -42
-7 -12 -16 -41 -19 -63 -4 -37 -2 -44 24 -63 15 -12 35 -21 43 -21 7 0 16 -7
20 -15 3 -8 15 -15 26 -15 11 0 20 -4 20 -10 0 -5 11 -12 24 -16 14 -3 27 -12
30 -20 10 -26 60 -16 94 19 18 18 32 38 32 45 0 7 7 12 15 12 8 0 15 6 15 14
0 8 7 16 15 20 8 3 15 12 15 21 0 8 4 15 10 15 5 0 12 10 15 23 4 12 18 31 32
41 21 15 29 17 44 8 23 -15 59 -16 59 -2 0 20 29 10 59 -21 17 -17 35 -28 40
-25 5 3 7 -3 4 -14 -3 -12 1 -22 11 -26 9 -3 16 -14 16 -23 0 -9 13 -28 30
-41 16 -14 29 -31 30 -37 0 -7 7 -13 15 -13 8 0 15 -7 15 -15 0 -11 11 -15 35
-15 22 0 38 6 41 15 4 8 15 15 25 15 11 0 22 7 25 15 4 8 14 15 24 15 10 0 23
7 30 15 7 8 18 15 26 15 7 0 19 6 26 13 7 7 21 16 32 20 14 6 17 13 11 35 -3
15 -11 29 -16 30 -5 2 -9 16 -9 32 0 16 -7 35 -15 44 -8 8 -15 25 -15 38 0 13
-6 30 -12 36 -7 7 -18 30 -24 50 -11 39 -1 79 23 95 7 4 13 19 13 32 0 20 6
25 38 31 20 4 42 10 47 14 6 4 47 10 93 13 47 3 90 11 99 19 9 7 24 12 35 10
17 -3 18 6 18 137 0 170 -1 171 -101 171 -38 0 -69 4 -69 9 0 5 -30 13 -67 16
-73 8 -93 18 -93 44 0 9 -10 25 -21 35 -19 16 -21 25 -16 72 3 30 13 61 21 70
9 8 16 24 16 35 0 11 7 27 15 35 8 9 15 28 15 43 0 16 7 34 15 41 18 15 20 46
3 54 -7 3 -26 15 -43 26 -16 11 -40 24 -52 29 -11 5 -24 15 -28 20 -3 6 -14
11 -25 11 -10 0 -20 7 -24 15 -3 8 -15 15 -26 15 -11 0 -20 5 -20 10 0 23 -29
7 -68 -36 -23 -25 -42 -48 -42 -51 0 -4 -13 -18 -28 -32 -15 -14 -36 -43 -47
-63 -21 -41 -47 -50 -133 -43 -53 5 -73 15 -85 48 -3 9 -11 17 -17 17 -5 0
-10 5 -10 10 0 10 -6 18 -62 79 -16 16 -28 33 -28 38 -1 17 -48 54 -55 43z
m401 -494 c8 -9 21 -16 29 -16 7 0 31 -19 54 -41 22 -23 41 -47 41 -54 0 -8 8
-21 18 -31 27 -27 25 -207 -3 -248 -34 -50 -112 -123 -139 -130 -14 -3 -26
-11 -26 -16 0 -17 -172 -12 -194 5 -11 8 -27 15 -37 15 -9 0 -19 7 -23 15 -3
8 -12 15 -21 15 -8 0 -15 7 -15 15 0 8 -7 15 -15 15 -8 0 -15 7 -15 15 0 9 -6
18 -14 21 -8 3 -17 21 -20 40 -4 19 -11 34 -16 34 -6 0 -10 35 -10 77 0 56 5
88 20 118 24 49 99 130 129 140 11 3 21 10 21 15 0 15 33 19 127 15 68 -2 97
-8 109 -19z"/>
</g>
</svg>
