<?xml version="1.0" standalone="no"?>
<!DOCTYPE svg PUBLIC "-//W3C//DTD SVG 20010904//EN"
 "http://www.w3.org/TR/2001/REC-SVG-20010904/DTD/svg10.dtd">
<svg version="1.0" xmlns="http://www.w3.org/2000/svg"
 width="900.000000pt" height="900.000000pt" viewBox="0 0 900.000000 900.000000"
 preserveAspectRatio="xMidYMid meet">
<metadata>
Created by potrace 1.10, written by Peter Selinger 2001-2011
</metadata>
<g transform="translate(0.000000,900.000000) scale(0.100000,-0.100000)"
fill="#000000" stroke="none" fill-opacity="0.25">
<path d="M4330 6363 c-63 -2 -124 -7 -135 -12 -11 -5 -80 -12 -153 -15 -73 -2
-139 -9 -145 -14 -7 -5 -52 -12 -102 -15 -51 -3 -91 -10 -93 -16 -2 -6 -25
-11 -50 -11 -26 0 -60 -7 -76 -15 -16 -8 -53 -18 -82 -21 -30 -4 -54 -11 -54
-15 0 -5 -15 -9 -33 -9 -18 0 -42 -7 -53 -15 -10 -8 -31 -15 -46 -15 -15 0
-33 -7 -42 -15 -8 -8 -23 -15 -34 -15 -11 0 -25 -7 -32 -15 -7 -8 -21 -15 -31
-15 -9 0 -24 -7 -33 -15 -8 -8 -21 -15 -30 -15 -8 0 -19 -6 -23 -13 -4 -7 -25
-23 -45 -36 -21 -12 -38 -27 -38 -32 0 -5 -5 -9 -11 -9 -5 0 -26 -17 -45 -37
-26 -28 -34 -45 -31 -64 2 -18 -1 -25 -9 -22 -18 7 -27 -86 -22 -234 3 -86 8
-128 16 -131 7 -2 12 -14 12 -26 0 -21 90 -126 109 -126 5 0 11 -7 15 -15 3
-8 14 -15 25 -15 10 0 21 -7 25 -15 3 -8 14 -15 25 -15 11 0 21 -4 23 -10 2
-5 14 -11 28 -12 14 -2 31 -11 38 -20 7 -10 22 -18 33 -18 11 0 27 -7 35 -15
9 -8 27 -15 42 -15 15 0 36 -7 46 -15 11 -8 34 -15 50 -15 17 0 40 -7 50 -15
11 -8 36 -15 56 -15 20 0 51 -7 68 -16 18 -9 49 -14 74 -12 28 2 47 -2 54 -11
7 -9 41 -15 100 -18 49 -3 94 -10 101 -15 7 -5 74 -12 150 -15 76 -3 141 -10
144 -15 9 -14 565 -14 581 -1 7 6 73 13 146 16 83 3 138 9 147 17 9 7 43 12
83 12 37 0 85 6 107 14 22 7 56 14 75 14 19 0 48 7 64 15 15 8 45 15 65 15 21
0 46 7 57 15 10 8 33 15 50 15 16 0 39 7 50 15 10 8 28 15 40 15 11 0 29 7 40
15 10 8 29 15 40 15 12 0 27 6 33 14 7 8 26 18 42 21 16 4 29 10 29 15 0 4 11
11 25 14 14 4 25 11 25 16 0 6 9 10 20 10 11 0 23 7 26 15 4 8 10 15 15 15 4
0 24 16 44 35 19 20 35 40 35 44 0 5 7 11 15 15 8 3 15 16 15 30 0 13 6 26 13
29 9 3 12 48 12 182 0 134 -3 179 -12 183 -7 2 -13 15 -13 28 0 14 -7 27 -15
30 -8 4 -15 11 -15 18 0 12 -35 46 -48 46 -4 1 -18 14 -32 30 -13 17 -32 30
-41 30 -9 0 -19 7 -23 15 -3 8 -16 15 -30 15 -13 0 -26 7 -30 15 -3 8 -16 15
-30 15 -13 0 -26 7 -30 15 -3 8 -15 15 -26 15 -12 0 -28 7 -36 15 -9 8 -27 15
-42 15 -15 0 -36 7 -46 15 -11 8 -35 15 -53 15 -18 0 -33 4 -33 9 0 4 -28 12
-62 15 -35 4 -66 12 -69 18 -4 6 -31 13 -60 16 -30 2 -60 9 -67 15 -7 5 -56
12 -110 15 -53 2 -103 9 -110 15 -7 5 -65 12 -130 14 -64 2 -128 8 -142 13
-30 10 -297 18 -460 13z"/>
<path d="M2882 4898 c2 -134 6 -182 16 -186 6 -2 12 -14 12 -26 0 -21 90 -126
109 -126 5 0 11 -7 15 -15 3 -8 14 -15 25 -15 10 0 21 -7 25 -15 3 -8 15 -15
26 -15 11 0 20 -4 20 -9 0 -5 13 -12 29 -16 16 -3 35 -13 42 -21 6 -8 22 -14
34 -14 12 0 28 -7 35 -15 7 -8 26 -15 42 -15 16 0 36 -7 44 -15 9 -8 28 -15
44 -15 15 0 41 -7 56 -15 16 -8 43 -15 60 -15 18 0 45 -7 60 -15 16 -8 45 -15
64 -15 19 0 53 -7 75 -15 22 -8 69 -14 105 -15 37 0 71 -5 77 -11 6 -6 71 -13
149 -16 77 -3 145 -10 151 -15 17 -14 568 -14 585 -1 7 6 73 13 146 16 78 3
138 9 145 16 6 6 43 11 81 11 39 1 89 7 111 15 22 8 56 15 75 15 19 0 48 7 64
15 15 8 42 15 60 15 17 0 44 7 60 15 15 8 40 15 55 15 15 0 36 7 47 15 10 8
31 15 45 15 15 0 32 7 39 15 7 8 23 15 35 15 12 0 28 6 34 14 7 8 26 18 42 21
16 4 29 11 29 16 0 5 9 9 20 9 11 0 23 7 26 15 4 8 15 15 25 15 11 0 22 7 25
15 4 8 10 15 14 15 13 0 80 66 80 78 0 5 7 12 15 16 8 3 15 16 15 30 0 13 6
26 13 28 9 4 13 52 15 186 4 160 2 182 -12 182 -8 0 -20 -9 -26 -20 -6 -11
-17 -20 -24 -20 -7 0 -40 -13 -72 -30 -32 -16 -65 -30 -71 -30 -7 0 -13 -4
-13 -9 0 -5 -16 -12 -35 -15 -19 -4 -35 -11 -35 -16 0 -6 -11 -10 -24 -10 -14
0 -31 -7 -40 -15 -8 -8 -30 -15 -48 -15 -19 0 -43 -7 -54 -15 -10 -8 -34 -15
-52 -15 -19 0 -46 -7 -60 -14 -15 -8 -57 -18 -94 -21 -38 -4 -68 -10 -68 -14
0 -5 -32 -11 -71 -14 -39 -3 -77 -11 -84 -17 -8 -7 -48 -11 -91 -11 -46 0 -90
-6 -112 -15 -31 -12 -108 -14 -502 -13 -542 2 -509 0 -537 17 -14 8 -56 12
-113 11 -58 -1 -96 3 -105 11 -8 7 -44 15 -80 18 -36 2 -65 8 -65 13 0 4 -30
10 -67 14 -38 3 -80 13 -95 21 -14 7 -41 14 -60 14 -18 0 -42 7 -52 15 -11 8
-35 15 -54 15 -18 0 -40 7 -48 15 -9 8 -26 15 -40 15 -13 0 -24 4 -24 9 0 5
-13 12 -29 16 -16 3 -63 24 -106 46 -42 21 -83 39 -91 39 -7 0 -18 9 -24 20
-6 11 -18 20 -26 20 -14 0 -16 -22 -12 -182z"/>
<path d="M2882 4088 c2 -134 6 -182 16 -186 6 -2 12 -15 12 -28 0 -14 7 -27
15 -30 8 -4 15 -10 15 -15 0 -11 68 -79 79 -79 5 0 11 -7 15 -15 3 -8 14 -15
25 -15 10 0 21 -7 25 -15 3 -8 15 -15 26 -15 11 0 20 -4 20 -10 0 -5 12 -13
27 -16 15 -4 34 -13 41 -21 7 -7 22 -13 33 -13 11 0 27 -7 35 -15 9 -8 27 -15
42 -15 15 0 36 -7 46 -15 11 -8 32 -15 47 -15 15 0 40 -7 55 -15 16 -8 43 -15
60 -15 18 0 45 -7 60 -15 16 -8 49 -15 74 -15 26 0 51 -5 58 -12 6 -6 51 -14
99 -16 49 -2 93 -9 100 -14 7 -5 74 -12 150 -15 76 -3 141 -10 144 -15 9 -14
565 -14 581 -1 7 6 73 13 146 16 72 2 138 9 145 14 6 6 54 13 105 16 52 3 99
10 105 15 7 5 37 12 67 14 30 3 56 11 58 17 2 6 22 11 45 11 23 0 55 7 71 15
15 8 40 15 55 15 15 0 36 7 47 15 10 8 31 15 45 15 15 0 32 7 39 15 7 8 23 15
35 15 12 0 28 7 35 15 7 8 21 15 31 15 9 0 24 7 33 15 8 8 22 15 31 15 8 0 18
7 21 15 4 8 15 15 25 15 11 0 22 7 25 15 4 8 10 15 15 15 11 0 79 68 79 79 0
5 7 11 15 15 8 3 15 16 15 30 0 13 6 26 13 28 9 4 13 52 15 186 3 159 2 182
-11 182 -9 0 -19 -5 -22 -11 -4 -5 -17 -15 -28 -20 -12 -5 -56 -27 -97 -49
-41 -22 -82 -40 -92 -40 -9 0 -23 -6 -30 -13 -7 -8 -30 -17 -51 -21 -20 -4
-37 -11 -37 -16 0 -6 -12 -10 -27 -10 -16 0 -41 -7 -57 -15 -15 -8 -43 -15
-60 -15 -17 0 -40 -6 -51 -14 -18 -12 -83 -25 -142 -27 -13 -1 -23 -4 -23 -9
0 -4 -35 -10 -77 -14 -43 -3 -79 -11 -81 -16 -2 -6 -42 -10 -90 -10 -56 0 -97
-5 -115 -15 -41 -21 -993 -22 -1021 0 -14 11 -47 15 -117 15 -56 0 -99 4 -101
10 -1 5 -38 13 -80 16 -43 4 -78 10 -78 14 0 5 -10 8 -22 9 -71 3 -133 15
-146 27 -7 8 -28 14 -47 14 -18 0 -46 7 -61 15 -16 8 -41 15 -56 15 -16 0 -28
4 -28 10 0 5 -17 12 -37 16 -21 4 -41 11 -44 17 -4 5 -19 11 -34 12 -15 2 -35
11 -44 19 -10 9 -21 16 -26 16 -14 0 -94 41 -101 51 -3 5 -13 9 -24 9 -10 0
-20 7 -24 15 -3 8 -13 15 -22 15 -14 0 -16 -19 -12 -182z"/>
<path d="M2882 3278 c2 -133 6 -182 16 -186 6 -2 12 -14 12 -26 0 -21 90 -126
109 -126 5 0 11 -7 15 -15 3 -8 14 -15 25 -15 10 0 21 -7 25 -15 3 -8 14 -15
24 -15 11 0 25 -7 32 -15 7 -8 20 -15 30 -15 10 0 23 -7 30 -15 7 -8 23 -15
35 -15 12 0 28 -7 35 -15 7 -8 26 -15 42 -15 16 0 36 -7 44 -15 9 -8 33 -15
54 -15 21 0 40 -5 42 -11 2 -5 24 -13 48 -16 25 -2 59 -11 77 -19 17 -8 48
-14 70 -14 21 -1 56 -7 78 -15 22 -8 69 -15 105 -15 37 0 71 -5 77 -11 6 -6
71 -13 149 -16 77 -3 142 -10 145 -15 9 -13 565 -13 581 0 7 5 73 12 147 15
76 3 138 10 144 16 6 6 42 11 80 11 37 0 77 4 87 10 10 5 51 15 92 20 40 6 75
15 76 20 2 6 22 10 45 10 23 0 55 7 71 15 15 8 40 15 55 15 15 0 36 7 47 15
10 8 29 15 41 15 12 0 28 7 37 15 8 8 26 15 39 15 14 0 30 7 37 15 7 8 20 15
30 15 10 0 23 7 30 15 7 8 21 15 32 15 10 0 21 7 24 15 4 8 15 15 25 15 11 0
22 7 25 15 4 8 12 15 20 15 8 0 14 7 14 15 0 8 4 15 10 15 15 0 50 33 50 46 0
7 7 14 15 18 8 3 15 16 15 30 0 13 6 26 13 28 19 7 24 368 5 368 -8 0 -19 -5
-25 -11 -14 -14 -33 -24 -140 -78 -44 -23 -86 -41 -92 -41 -6 0 -11 -4 -11
-10 0 -5 -13 -10 -29 -10 -16 0 -36 -7 -45 -15 -8 -8 -30 -15 -48 -15 -19 0
-43 -7 -54 -15 -10 -8 -35 -15 -54 -15 -20 0 -44 -6 -55 -14 -18 -12 -83 -25
-142 -27 -13 -1 -23 -4 -23 -9 0 -4 -35 -10 -77 -14 -43 -3 -79 -11 -81 -16
-2 -6 -43 -10 -92 -10 -49 0 -101 -5 -117 -11 -40 -16 -51 -16 -518 -16 -231
0 -438 0 -460 -1 -22 0 -43 4 -46 10 -4 6 -51 13 -105 15 -55 3 -104 9 -111
14 -6 6 -43 13 -82 16 -39 3 -71 9 -71 13 0 5 -10 8 -22 9 -60 2 -125 15 -143
27 -11 8 -35 14 -55 14 -19 0 -44 7 -54 15 -11 8 -35 15 -54 15 -18 0 -40 7
-48 15 -9 8 -29 15 -45 15 -16 0 -29 5 -29 10 0 6 -6 10 -12 10 -17 0 -208 97
-229 116 -38 34 -41 22 -37 -168z m533 -198 c18 -19 17 -20 -3 -20 -15 0 -22
6 -22 20 0 11 2 20 3 20 2 0 12 -9 22 -20z"/>
</g>
</svg>
