<?xml version="1.0" standalone="no"?>
<!DOCTYPE svg PUBLIC "-//W3C//DTD SVG 20010904//EN"
 "http://www.w3.org/TR/2001/REC-SVG-20010904/DTD/svg10.dtd">
<svg version="1.0" xmlns="http://www.w3.org/2000/svg"
 width="900.000000pt" height="900.000000pt" viewBox="0 0 900.000000 900.000000"
 preserveAspectRatio="xMidYMid meet">
<metadata>
Created by potrace 1.10, written by Peter Selinger 2001-2011
</metadata>
<g transform="translate(0.000000,900.000000) scale(0.100000,-0.100000)"
fill="#000000" stroke="none" fill-opacity="0.25">
<path d="M3095 6350 c-3 -5 -24 -10 -46 -10 -26 0 -42 -5 -45 -15 -4 -8 -11
-15 -18 -15 -11 0 -20 -12 -56 -70 -13 -22 -15 -219 -18 -1705 -2 -924 0
-1708 3 -1743 5 -46 10 -62 20 -58 8 3 11 -2 8 -14 -6 -21 34 -80 55 -80 7 0
20 -7 28 -15 14 -13 192 -15 1489 -15 1297 0 1475 2 1489 15 8 8 19 15 25 15
23 0 71 65 71 96 0 17 7 37 15 44 13 10 14 155 12 1118 l-2 1107 -618 5 c-576
5 -619 6 -628 23 -6 9 -14 17 -19 17 -13 0 -50 37 -50 50 0 5 -7 13 -15 17
-13 8 -15 91 -17 623 l-3 615 -837 3 c-553 1 -839 -1 -843 -8z"/>
<path d="M5070 5780 l0 -470 470 0 c283 0 470 4 470 10 0 5 -7 13 -15 18 -23
12 -885 873 -896 894 -5 10 -14 18 -19 18 -6 0 -10 -175 -10 -470z"/>
</g>
</svg>
