<?xml version="1.0" standalone="no"?>
<!DOCTYPE svg PUBLIC "-//W3C//DTD SVG 20010904//EN"
 "http://www.w3.org/TR/2001/REC-SVG-20010904/DTD/svg10.dtd">
<svg version="1.0" xmlns="http://www.w3.org/2000/svg"
 width="900.000000pt" height="900.000000pt" viewBox="0 0 900.000000 900.000000"
 preserveAspectRatio="xMidYMid meet">
<metadata>
Created by potrace 1.10, written by Peter Selinger 2001-2011
</metadata>
<g transform="translate(0.000000,900.000000) scale(0.100000,-0.100000)"
fill="#000000" stroke="none" fill-opacity="0.05">
<path d="M4456 6624 c-8 -8 -27 -14 -43 -14 -15 -1 -46 -9 -68 -20 -22 -11
-50 -19 -62 -20 -12 0 -25 -4 -28 -10 -3 -5 -20 -10 -37 -10 -16 0 -42 -6 -56
-14 -15 -8 -44 -18 -64 -21 -21 -3 -38 -10 -38 -15 0 -6 -15 -10 -34 -10 -19
0 -41 -7 -50 -15 -8 -8 -27 -15 -43 -15 -15 -1 -46 -9 -68 -20 -22 -11 -52
-19 -67 -20 -16 0 -28 -4 -28 -10 0 -5 -15 -10 -34 -10 -19 0 -41 -6 -48 -13
-7 -8 -33 -16 -58 -20 -24 -3 -46 -11 -48 -16 -2 -6 -16 -11 -31 -11 -14 0
-35 -6 -46 -14 -11 -7 -40 -16 -65 -19 -24 -3 -46 -11 -48 -16 -2 -6 -16 -11
-31 -11 -15 0 -36 -7 -47 -15 -10 -8 -33 -15 -49 -15 -17 0 -41 -7 -53 -16
-13 -9 -39 -18 -59 -19 -20 -2 -41 -9 -46 -14 -6 -6 -23 -11 -37 -11 -14 0
-35 -7 -46 -15 -10 -8 -33 -15 -49 -15 -17 0 -39 -6 -50 -14 -11 -7 -37 -16
-57 -20 -21 -4 -38 -11 -38 -16 0 -6 -17 -10 -38 -10 -21 0 -47 -7 -58 -15
-10 -8 -30 -15 -44 -15 -14 0 -38 -7 -54 -15 -15 -8 -36 -15 -45 -15 -10 0
-26 -7 -37 -15 -10 -8 -36 -15 -56 -15 -20 0 -44 -7 -53 -16 -9 -9 -36 -19
-61 -22 -24 -2 -44 -9 -44 -13 0 -5 -12 -9 -27 -9 -16 0 -41 -7 -57 -15 -15
-8 -40 -15 -55 -15 -15 0 -36 -7 -47 -15 -10 -8 -31 -15 -46 -15 -15 0 -33 -7
-42 -15 -8 -8 -30 -15 -50 -15 -19 0 -41 -7 -49 -15 -8 -8 -35 -18 -59 -21
-23 -4 -46 -11 -49 -16 -3 -5 -23 -11 -45 -13 -21 -2 -40 -8 -42 -14 -2 -6
-26 -13 -53 -17 -27 -4 -49 -10 -49 -15 0 -5 -15 -9 -34 -9 -19 0 -41 -7 -50
-15 -8 -8 -27 -15 -43 -15 -16 0 -38 -6 -49 -14 -11 -8 -37 -17 -57 -21 -21
-4 -40 -11 -43 -16 -3 -5 -18 -9 -34 -9 -39 0 -60 -9 -60 -27 0 -8 -5 -11 -11
-7 -16 9 -29 -15 -29 -54 0 -22 6 -35 17 -39 10 -4 24 -13 31 -20 7 -7 29 -13
48 -13 19 0 34 -4 34 -10 0 -5 17 -12 38 -15 20 -3 49 -13 64 -21 14 -8 38
-14 53 -14 14 0 33 -7 41 -15 9 -8 28 -15 44 -15 15 0 41 -7 56 -15 16 -8 41
-15 57 -15 15 0 27 -4 27 -9 0 -6 21 -13 47 -17 26 -4 53 -13 61 -20 7 -8 28
-14 45 -14 18 0 41 -7 51 -15 11 -8 35 -15 53 -15 18 0 33 -4 33 -9 0 -5 19
-11 41 -15 23 -4 51 -13 62 -21 12 -8 39 -15 60 -15 39 0 39 0 33 -32 -3 -18
-13 -38 -21 -44 -8 -6 -15 -19 -15 -28 0 -9 -4 -16 -10 -16 -5 0 -12 -11 -16
-25 -3 -14 -10 -25 -15 -25 -5 0 -9 -7 -9 -16 0 -8 -10 -34 -22 -57 -42 -81
-48 -95 -48 -110 0 -8 -7 -28 -15 -43 -8 -16 -15 -43 -15 -61 0 -17 -5 -33
-12 -35 -6 -2 -13 -31 -15 -64 -3 -32 -11 -73 -19 -91 -8 -17 -14 -62 -14
-101 0 -39 -4 -74 -10 -77 -5 -3 -10 -23 -10 -43 0 -56 -11 -112 -22 -112 -15
0 -108 -92 -108 -106 0 -6 -7 -14 -15 -18 -8 -3 -15 -18 -15 -34 0 -15 -6 -34
-12 -40 -8 -8 -13 -42 -13 -92 0 -50 5 -84 13 -91 6 -7 12 -26 12 -41 0 -16 7
-31 15 -34 8 -4 15 -12 15 -18 0 -7 25 -36 56 -65 42 -40 54 -57 48 -69 -5
-10 -10 -60 -12 -112 -2 -52 -8 -100 -14 -107 -5 -6 -12 -56 -15 -110 -3 -54
-10 -103 -15 -110 -5 -6 -12 -53 -15 -105 -3 -51 -11 -112 -19 -136 -8 -23
-14 -78 -14 -120 0 -43 -4 -82 -10 -88 -5 -5 -12 -54 -16 -109 -4 -55 -10
-102 -15 -105 -4 -3 -11 -33 -14 -66 -7 -57 -5 -62 20 -90 l27 -29 287 -3
c270 -3 288 -2 309 16 12 11 22 24 22 31 0 6 5 11 10 11 12 0 13 57 2 64 -5 3
-12 49 -15 102 -4 54 -11 100 -16 104 -6 3 -10 44 -11 90 -1 47 -8 105 -15
130 -7 25 -16 87 -19 139 -3 52 -9 97 -14 100 -5 3 -12 50 -14 104 -3 54 -10
103 -17 110 -6 6 -11 45 -11 92 -1 44 -7 98 -15 120 -8 22 -15 52 -15 68 0 26
30 67 50 67 6 0 10 4 10 8 0 5 13 22 30 38 16 16 30 36 30 45 0 9 7 19 15 23
10 3 15 19 15 45 0 22 5 43 10 46 6 3 10 28 10 55 0 27 -4 52 -10 55 -5 3 -10
24 -10 45 0 21 -6 43 -12 47 -13 8 -32 35 -45 62 -7 16 -40 51 -48 51 -3 0
-14 9 -25 20 -17 17 -20 33 -20 124 0 73 4 112 15 132 8 16 15 50 15 76 0 26
4 49 9 53 6 3 13 27 17 53 4 26 13 56 20 67 8 11 14 29 14 40 0 11 7 29 15 39
8 11 15 28 15 38 0 10 4 18 9 18 5 0 12 14 16 30 4 17 10 30 15 30 5 0 12 10
15 21 4 12 27 40 51 63 24 24 44 48 44 56 0 17 124 5 154 -15 11 -8 35 -15 52
-15 18 0 34 -5 36 -11 2 -5 22 -13 46 -16 23 -3 42 -9 42 -14 0 -4 17 -11 38
-14 20 -4 51 -13 69 -21 17 -8 42 -14 56 -14 14 0 27 -5 29 -11 2 -5 24 -13
48 -16 25 -3 48 -10 51 -15 3 -5 23 -11 45 -15 21 -3 42 -10 45 -15 3 -5 26
-12 50 -15 24 -4 50 -12 57 -20 7 -7 29 -13 48 -13 19 0 34 -4 34 -9 0 -5 19
-12 43 -16 23 -4 51 -14 62 -21 11 -8 34 -14 51 -14 18 0 34 -5 36 -11 2 -5
24 -13 48 -16 25 -3 48 -10 51 -15 3 -5 25 -12 48 -15 22 -3 41 -9 41 -13 0
-5 19 -11 43 -15 23 -4 51 -14 62 -21 11 -8 34 -14 52 -14 18 0 33 -4 33 -10
0 -5 17 -12 38 -15 20 -3 49 -13 64 -21 14 -8 40 -14 57 -14 17 0 31 -4 31
-10 0 -5 23 -12 50 -16 28 -4 50 -10 50 -14 0 -5 18 -11 41 -15 22 -4 52 -13
65 -20 26 -13 60 -10 70 6 3 5 20 9 38 9 18 0 41 7 52 15 10 8 31 15 45 15 14
0 34 7 45 15 10 8 36 15 56 15 20 0 43 7 51 15 8 8 34 17 56 21 23 4 44 11 47
15 3 5 18 9 34 9 16 0 35 7 44 15 8 8 29 15 46 15 18 0 44 6 58 14 15 8 44 18
65 21 20 3 37 10 37 15 0 6 12 10 28 10 15 0 40 7 56 15 16 8 46 18 67 21 22
4 39 10 39 15 0 5 15 9 34 9 19 0 41 7 50 15 8 8 30 15 50 15 19 0 41 7 50 15
8 8 27 15 41 15 15 0 39 6 53 14 15 8 44 18 65 21 20 3 37 10 37 15 0 6 12 10
28 10 15 0 40 7 56 15 15 8 41 15 56 15 16 0 35 7 44 15 8 8 27 15 41 15 15 0
39 6 53 14 15 8 44 18 65 21 20 3 37 10 37 15 0 6 15 10 33 10 18 0 41 6 52
14 11 7 39 17 63 21 23 4 42 11 42 16 0 5 15 9 33 9 18 0 42 7 53 15 10 8 33
15 49 15 17 0 39 6 50 14 11 7 38 16 59 19 22 4 43 12 47 18 3 6 20 11 35 11
16 0 38 6 49 13 11 7 39 16 63 20 23 4 42 11 42 16 0 5 12 9 28 9 15 0 40 7
56 15 15 8 41 15 56 15 16 0 35 7 43 15 8 8 34 17 56 21 23 4 44 11 47 15 3 5
17 9 32 9 15 0 40 7 56 15 15 8 37 15 48 15 11 0 32 6 46 14 15 8 44 18 65 21
20 3 37 10 37 15 0 6 15 10 33 10 18 0 42 7 53 15 10 8 30 15 44 15 14 0 38 7
54 15 15 8 39 15 52 15 27 0 84 54 84 80 0 31 -55 80 -88 80 -16 0 -43 7 -58
15 -16 8 -37 15 -47 15 -10 0 -29 7 -42 16 -15 10 -38 15 -60 12 -23 -3 -35 0
-35 8 0 14 -23 24 -56 24 -13 0 -24 4 -24 9 0 5 -21 12 -47 16 -27 4 -50 11
-54 16 -3 5 -25 13 -50 18 -77 17 -134 35 -147 48 -7 7 -30 13 -50 13 -20 0
-46 7 -56 15 -11 8 -32 15 -48 15 -15 0 -28 4 -28 10 0 5 -17 12 -37 15 -21 3
-50 13 -65 21 -14 8 -42 14 -61 14 -20 0 -38 4 -42 9 -3 5 -20 13 -37 17 -18
3 -43 13 -55 21 -14 9 -38 14 -62 11 -22 -2 -37 1 -34 5 8 13 -18 27 -50 27
-16 0 -35 7 -43 15 -9 8 -30 15 -47 15 -18 0 -41 7 -51 15 -11 8 -32 15 -47
15 -15 0 -40 7 -55 15 -16 8 -39 15 -51 15 -12 0 -23 5 -25 11 -2 5 -24 13
-48 16 -25 4 -51 12 -58 20 -7 7 -29 13 -48 13 -19 0 -34 4 -34 9 0 5 -22 11
-49 15 -27 4 -51 11 -53 17 -2 6 -22 13 -46 16 -23 3 -42 9 -42 13 0 4 -21 10
-46 14 -25 3 -52 13 -60 21 -9 8 -31 15 -50 15 -20 0 -42 7 -50 15 -9 8 -29
15 -45 15 -17 0 -37 7 -45 15 -9 8 -30 15 -47 15 -18 0 -41 7 -51 15 -11 8
-37 15 -57 15 -21 0 -41 5 -44 10 -3 6 -14 10 -23 10 -10 0 -34 9 -55 20 -20
11 -51 20 -68 20 -17 0 -37 7 -45 15 -9 8 -31 15 -50 15 -19 0 -34 4 -34 9 0
5 -19 11 -42 15 -23 4 -45 12 -49 18 -4 5 -28 13 -55 16 -27 3 -55 11 -62 19
-7 7 -24 13 -37 13 -12 0 -36 7 -51 15 -16 8 -43 15 -61 15 -17 0 -34 4 -37 9
-10 16 -46 19 -60 5z"/>
<path d="M2759 4623 c0 -5 0 -30 1 -57 1 -27 -3 -52 -9 -55 -6 -4 -14 -101
-21 -246 -5 -132 -15 -309 -22 -394 -10 -139 -10 -157 5 -184 9 -16 17 -40 17
-53 0 -14 7 -27 15 -30 8 -4 15 -11 15 -16 0 -15 122 -138 136 -138 6 0 14 -7
18 -15 3 -8 12 -15 21 -15 8 0 15 -4 15 -9 0 -5 10 -13 22 -17 12 -3 28 -13
36 -20 7 -8 22 -14 32 -14 10 0 20 -7 24 -15 3 -8 16 -15 30 -15 13 0 26 -7
30 -15 3 -8 16 -15 28 -15 13 0 32 -7 42 -15 11 -8 30 -15 43 -15 13 0 23 -4
23 -10 0 -5 17 -12 38 -15 20 -3 49 -13 64 -21 14 -8 37 -14 51 -14 14 0 38
-7 53 -15 16 -8 46 -15 66 -15 20 0 38 -5 40 -11 2 -6 35 -13 73 -16 39 -3 79
-12 90 -19 12 -9 48 -14 95 -14 42 0 81 -5 87 -11 7 -7 69 -13 154 -16 79 -2
146 -9 150 -14 7 -13 517 -13 533 0 6 5 72 11 147 13 79 2 142 8 150 15 8 6
53 13 101 15 47 2 92 9 100 15 7 6 40 13 72 16 32 3 64 11 69 16 6 6 27 11 46
11 20 0 48 6 62 14 14 7 47 16 73 20 25 4 46 11 46 17 0 5 13 9 28 9 16 0 37
7 48 15 10 8 29 15 41 15 12 0 28 7 37 15 8 8 21 15 28 15 23 0 168 75 168 87
0 7 7 10 15 7 8 -4 17 1 21 10 3 9 15 16 25 16 11 0 22 7 25 15 4 8 11 15 18
15 14 0 116 96 116 109 0 5 7 11 15 15 8 3 15 13 15 21 0 9 7 24 16 32 10 10
14 27 12 45 -3 16 1 33 9 39 15 13 18 129 4 145 -5 5 -11 115 -15 243 -4 138
-10 237 -16 241 -6 4 -10 66 -11 148 0 130 -2 142 -18 142 -10 0 -24 -7 -31
-15 -7 -8 -28 -15 -47 -15 -19 0 -47 -6 -61 -14 -39 -19 -91 -37 -137 -46 -22
-4 -53 -15 -70 -24 -16 -9 -42 -16 -57 -16 -15 0 -30 -4 -33 -10 -3 -5 -18
-10 -33 -10 -15 0 -36 -6 -47 -14 -11 -7 -39 -17 -62 -21 -24 -4 -43 -10 -43
-15 0 -4 -19 -10 -42 -13 -24 -3 -44 -11 -46 -16 -2 -6 -20 -11 -41 -11 -20 0
-45 -6 -56 -14 -11 -7 -35 -17 -53 -21 -19 -4 -32 -12 -29 -18 3 -8 -10 -11
-43 -9 -33 3 -52 -1 -63 -12 -9 -9 -36 -19 -61 -22 -25 -4 -46 -10 -46 -14 0
-4 -19 -10 -41 -13 -23 -3 -45 -10 -48 -16 -4 -5 -27 -13 -51 -17 -25 -4 -47
-11 -50 -15 -3 -4 -23 -10 -45 -12 -22 -3 -41 -10 -43 -16 -2 -6 -21 -11 -42
-11 -21 0 -45 -7 -54 -15 -8 -8 -23 -15 -33 -15 -10 0 -31 -7 -47 -15 -40 -21
-282 -21 -322 0 -16 8 -38 15 -49 15 -11 0 -29 7 -39 15 -11 8 -34 15 -52 15
-18 0 -34 5 -36 11 -2 5 -22 13 -46 16 -23 3 -42 9 -42 13 0 4 -21 11 -47 15
-27 4 -50 11 -54 16 -3 5 -25 13 -50 18 -77 17 -134 35 -147 48 -7 7 -30 13
-50 13 -20 0 -46 7 -56 15 -11 8 -32 15 -48 15 -15 0 -28 4 -28 10 0 5 -17 12
-37 15 -21 3 -50 13 -65 21 -14 8 -40 14 -57 14 -17 0 -31 4 -31 10 0 5 -17
12 -37 15 -21 3 -50 13 -65 21 -14 8 -40 14 -56 14 -17 0 -33 4 -36 9 -3 5
-22 12 -43 16 -20 4 -46 13 -57 21 -11 8 -36 14 -56 14 -19 0 -44 7 -54 15
-11 8 -30 15 -42 15 -12 0 -24 5 -26 11 -2 5 -24 13 -48 16 -25 3 -54 12 -65
19 -21 15 -44 18 -46 7z"/>
</g>
</svg>
