<?xml version="1.0" standalone="no"?>
<!DOCTYPE svg PUBLIC "-//W3C//DTD SVG 20010904//EN"
 "http://www.w3.org/TR/2001/REC-SVG-20010904/DTD/svg10.dtd">
<svg version="1.0" xmlns="http://www.w3.org/2000/svg"
 width="500.000000pt" height="500.000000pt" viewBox="0 0 500.000000 500.000000"
 preserveAspectRatio="xMidYMid meet">
<g transform="translate(0.000000,500.000000) scale(0.100000,-0.100000)"
fill="#000000" stroke="#000000" stroke-width="50" stroke-linejoin="round">
<path d="M2346 4128 c-27 -12 -556 -261 -1175 -553 -1107 -522 -1126 -532
-1129 -561 -2 -19 3 -35 15 -45 10 -9 324 -159 698 -335 l680 -319 80 1 c78 0
84 2 245 75 159 72 165 76 168 106 2 24 -2 35 -20 46 -13 8 -225 109 -471 223
-271 126 -453 216 -459 228 -7 13 -6 22 4 32 7 8 428 208 933 445 506 236 930
437 943 445 26 17 29 55 5 76 -10 8 -83 46 -163 84 -136 64 -150 68 -225 71
-66 3 -89 -1 -129 -19z"/>
<path d="M3180 3681 c-232 -106 -256 -123 -240 -167 6 -15 137 -80 505 -249
273 -126 500 -236 505 -245 6 -11 5 -23 -3 -33 -7 -8 -430 -210 -942 -447
-511 -238 -936 -437 -943 -443 -7 -6 -12 -24 -10 -41 3 -29 12 -36 171 -116
l168 -85 77 0 77 1 1155 548 c635 302 1163 556 1173 564 12 10 17 27 15 46 -3
29 -18 37 -733 373 l-730 343 -70 0 c-62 0 -81 -6 -175 -49z"/>
<path d="M844 2119 c-18 -20 -19 -41 -19 -358 0 -368 0 -365 62 -422 16 -15
338 -169 733 -350 l705 -323 82 -4 82 -4 713 326 c392 180 724 335 738 345 13
9 35 37 47 61 23 42 23 48 23 377 0 320 -1 334 -20 353 -30 30 -59 25 -182
-30 -131 -59 -137 -63 -172 -114 -24 -36 -26 -47 -26 -145 0 -58 -5 -123 -11
-145 -23 -83 -44 -96 -594 -347 l-510 -234 -80 0 -80 1 -520 240 c-625 288
-577 250 -585 457 -8 191 -20 207 -201 286 -129 56 -157 61 -185 30z"/>
</g>
</svg>
