<?xml version="1.0" standalone="no"?>
<!DOCTYPE svg PUBLIC "-//W3C//DTD SVG 20010904//EN"
 "http://www.w3.org/TR/2001/REC-SVG-20010904/DTD/svg10.dtd">
<svg version="1.0" xmlns="http://www.w3.org/2000/svg"
 width="900.000000pt" height="900.000000pt" viewBox="0 0 900.000000 900.000000"
 preserveAspectRatio="xMidYMid meet">
<metadata>
Created by potrace 1.10, written by Peter Selinger 2001-2011
</metadata>
<g transform="translate(0.000000,900.000000) scale(0.100000,-0.100000)"
fill="#000000" stroke="none" fill-opacity="0.1">
<path d="M5373 5943 c-13 -2 -23 -9 -23 -14 0 -5 -6 -9 -14 -9 -8 0 -102 -88
-209 -197 l-195 -196 424 -425 424 -424 85 85 c47 47 85 88 85 92 0 4 44 51
98 105 55 54 109 116 120 139 27 51 31 161 7 185 -8 8 -15 22 -15 31 0 9 -12
30 -27 46 -82 88 -405 409 -412 409 -11 0 -47 35 -101 98 -26 30 -53 52 -65
52 -11 0 -29 7 -39 15 -19 14 -91 18 -143 8z m487 -388 c0 -30 -3 -35 -22 -35
-21 1 -21 2 -5 11 9 5 17 21 17 34 0 14 2 25 5 25 3 0 5 -16 5 -35z"/>
<path d="M4714 5312 c-32 -35 -66 -70 -74 -79 -245 -239 -469 -470 -466 -480
3 -7 -1 -10 -8 -7 -7 3 -62 -45 -122 -106 -60 -62 -114 -117 -121 -123 -6 -7
-83 -83 -170 -169 -87 -86 -168 -167 -180 -180 -11 -13 -125 -126 -252 -252
-127 -127 -231 -234 -231 -238 0 -4 -5 -8 -11 -8 -6 0 -19 -10 -30 -22 -17
-22 -18 -47 -18 -440 l-1 -418 431 0 431 0 865 865 c862 863 865 866 847 887
-92 102 -571 568 -580 564 -8 -3 -11 0 -8 8 2 7 -51 68 -119 137 l-123 124
-60 -63z m161 -258 c14 -11 20 -27 20 -57 0 -40 -6 -49 -75 -121 -41 -43 -86
-88 -99 -100 -12 -11 -53 -52 -90 -90 -36 -37 -77 -78 -90 -90 -13 -11 -34
-32 -45 -45 -12 -13 -32 -34 -45 -45 -12 -12 -60 -59 -105 -104 -106 -110
-124 -128 -185 -186 -29 -27 -50 -55 -47 -61 2 -7 -3 -12 -12 -11 -10 0 -17
-6 -16 -15 1 -11 -5 -15 -17 -12 -12 4 -19 0 -19 -10 0 -8 -7 -18 -16 -21 -9
-3 -14 -13 -11 -21 4 -9 1 -12 -7 -9 -7 3 -28 -12 -47 -32 -19 -20 -45 -46
-58 -58 -13 -11 -34 -32 -45 -45 -12 -13 -32 -34 -45 -45 -13 -12 -38 -36 -54
-53 -26 -29 -37 -33 -78 -33 -44 0 -49 3 -55 25 -16 63 -7 74 365 446 198 197
362 359 366 359 4 0 108 101 232 225 124 124 232 225 242 225 9 0 25 -7 36
-16z m-1006 -1245 c-15 -9 -32 -2 -24 11 3 5 13 6 21 3 12 -4 13 -8 3 -14z
m-131 -311 c139 -139 252 -255 252 -259 0 -4 -45 -53 -100 -108 l-100 -102
-123 3 -122 3 -3 132 -3 132 -132 3 -132 3 -3 121 -3 122 92 90 c116 114 113
111 120 112 3 0 119 -113 257 -252z"/>
</g>
</svg>
