<?xml version="1.0" standalone="no"?>
<!DOCTYPE svg PUBLIC "-//W3C//DTD SVG 20010904//EN"
 "http://www.w3.org/TR/2001/REC-SVG-20010904/DTD/svg10.dtd">
<svg version="1.0" xmlns="http://www.w3.org/2000/svg"
 width="900.000000pt" height="900.000000pt" viewBox="0 0 900.000000 900.000000"
 preserveAspectRatio="xMidYMid meet">
<metadata>
Created by potrace 1.10, written by Peter Selinger 2001-2011
</metadata>
<g transform="translate(0.000000,900.000000) scale(0.100000,-0.100000)"
fill="#000000" stroke="none" fill-opacity="0.1">
<path d="M4440 5902 c0 -5 -59 -12 -132 -15 -72 -4 -136 -11 -142 -17 -5 -5
-33 -10 -62 -10 -31 0 -56 -5 -63 -14 -6 -7 -35 -16 -63 -18 -29 -3 -54 -11
-56 -17 -2 -6 -14 -11 -27 -11 -13 0 -30 -7 -39 -15 -8 -8 -28 -15 -45 -15
-16 0 -36 -7 -45 -15 -8 -8 -20 -15 -26 -15 -11 0 -44 -15 -90 -41 -8 -5 -30
-15 -47 -23 -18 -8 -33 -20 -33 -25 0 -6 -6 -11 -14 -11 -18 0 -76 -32 -76
-42 0 -5 -8 -8 -18 -8 -10 0 -32 -13 -50 -30 -18 -16 -36 -30 -40 -30 -4 0
-15 -8 -24 -17 -25 -27 -46 -43 -56 -43 -4 0 -19 -13 -32 -30 -14 -16 -28 -29
-32 -30 -12 0 -48 -39 -48 -50 0 -5 -7 -10 -15 -10 -8 0 -15 -7 -15 -15 0 -8
-4 -15 -10 -15 -10 0 -50 -36 -50 -45 0 -3 -12 -17 -26 -30 -14 -13 -35 -41
-46 -62 -11 -21 -33 -50 -49 -64 -16 -14 -29 -33 -29 -41 0 -9 -7 -18 -15 -22
-8 -3 -15 -12 -15 -19 0 -8 -7 -20 -15 -27 -8 -7 -15 -20 -15 -30 0 -10 -7
-20 -15 -24 -8 -3 -15 -14 -15 -24 0 -11 -7 -25 -15 -32 -8 -7 -15 -19 -15
-27 0 -8 -7 -21 -15 -29 -8 -9 -15 -26 -15 -39 0 -12 -6 -25 -14 -28 -8 -3
-12 -14 -9 -25 2 -10 -3 -26 -11 -35 -9 -9 -19 -31 -23 -49 -3 -18 -12 -42
-20 -53 -7 -11 -13 -29 -13 -41 0 -12 -7 -35 -15 -50 -8 -16 -15 -45 -15 -65
0 -20 -7 -50 -15 -65 -9 -18 -15 -57 -15 -106 0 -46 -4 -78 -11 -80 -14 -5
-15 -334 -1 -351 5 -7 12 -55 15 -107 3 -52 11 -96 17 -98 5 -2 10 -22 10 -45
0 -23 7 -55 15 -71 8 -15 15 -38 15 -50 0 -11 7 -34 15 -50 8 -15 15 -36 15
-46 0 -10 7 -25 15 -34 8 -8 15 -23 15 -33 0 -11 7 -28 15 -39 8 -10 15 -29
15 -42 0 -12 7 -25 15 -28 8 -4 15 -14 15 -24 0 -10 6 -25 14 -32 7 -8 17 -24
20 -36 4 -12 12 -22 17 -22 5 0 9 -9 9 -20 0 -11 7 -23 15 -26 8 -4 15 -15 15
-25 0 -11 8 -23 18 -26 9 -4 23 -13 30 -20 10 -10 321 -12 1532 -13 1338 0
1520 2 1534 15 8 8 19 15 25 15 10 0 15 8 61 97 14 26 31 52 37 56 7 4 13 19
13 31 0 13 7 27 16 30 12 4 15 15 12 36 -3 19 0 30 8 30 13 0 24 22 24 47 0 8
7 21 15 29 8 9 15 29 15 45 0 16 5 29 10 29 6 0 10 12 10 28 1 15 9 45 20 67
11 22 19 59 20 82 0 23 5 43 11 45 7 2 13 42 15 97 2 52 9 100 15 107 13 15
14 345 1 353 -5 3 -12 46 -15 94 -3 49 -10 94 -15 100 -5 7 -12 37 -14 67 -3
30 -11 56 -17 58 -6 2 -11 17 -11 33 0 16 -9 46 -20 66 -11 21 -20 45 -20 55
0 9 -4 20 -10 23 -5 3 -10 20 -10 36 0 17 -6 32 -15 35 -8 4 -15 17 -15 30 0
14 -7 27 -15 30 -8 4 -15 17 -15 30 0 14 -7 27 -15 30 -8 4 -15 17 -15 30 0
14 -7 27 -15 30 -8 4 -15 14 -15 24 0 10 -7 23 -15 30 -8 7 -15 19 -15 27 0 7
-7 16 -15 19 -8 4 -15 13 -15 22 0 8 -13 27 -29 41 -16 14 -38 43 -49 64 -11
21 -32 49 -46 62 -14 13 -26 26 -26 29 0 5 -129 136 -135 136 -1 0 -24 20 -51
45 -26 25 -53 45 -61 45 -7 0 -13 5 -13 10 0 6 -7 13 -16 17 -9 3 -30 19 -47
34 -17 16 -37 29 -43 29 -6 0 -17 7 -24 15 -7 9 -19 14 -26 11 -7 -3 -15 2
-18 10 -3 8 -16 19 -28 24 -13 6 -30 14 -38 19 -8 5 -22 12 -30 15 -8 3 -22
10 -30 15 -42 24 -79 41 -90 41 -6 0 -18 7 -26 15 -9 8 -28 15 -44 15 -16 0
-30 7 -34 15 -3 9 -18 15 -36 15 -17 0 -38 7 -46 15 -9 9 -34 15 -58 15 -27 0
-48 6 -56 15 -8 10 -30 15 -64 15 -29 0 -57 5 -64 12 -7 7 -62 13 -142 16 -71
3 -130 9 -130 13 0 5 -22 9 -50 9 -27 0 -50 -4 -50 -8z m136 -247 c9 -8 26
-15 39 -15 12 0 25 -7 29 -15 3 -8 12 -15 21 -15 8 0 15 -7 15 -15 0 -8 7 -15
15 -15 8 0 15 -7 15 -15 0 -8 4 -15 9 -15 5 0 19 -19 30 -43 16 -34 21 -63 21
-129 0 -95 -11 -126 -67 -188 -18 -19 -33 -38 -33 -42 0 -5 -9 -8 -20 -8 -10
0 -23 -8 -29 -17 -8 -16 -26 -18 -131 -18 -105 0 -123 2 -131 18 -6 9 -16 17
-24 17 -13 0 -39 24 -81 73 -6 8 -15 23 -18 35 -4 12 -12 22 -17 22 -5 0 -9
44 -9 97 0 78 4 105 21 140 11 24 25 43 30 43 5 0 9 5 9 10 0 13 32 45 53 53
9 3 17 11 17 17 0 5 8 10 18 10 10 0 27 7 38 15 27 20 160 21 180 0z m-899
-420 c23 -11 43 -26 43 -32 0 -7 7 -13 15 -13 8 0 15 -7 15 -15 0 -8 6 -15 14
-15 8 0 18 -9 21 -20 3 -11 10 -20 15 -20 4 0 11 -18 15 -40 4 -22 11 -42 16
-46 15 -9 11 -114 -6 -130 -8 -9 -15 -26 -15 -39 0 -12 -7 -25 -15 -29 -8 -3
-15 -12 -15 -20 0 -16 -38 -58 -62 -70 -7 -3 -33 -17 -57 -31 -36 -20 -58 -25
-116 -25 -61 0 -81 5 -128 30 -62 33 -107 73 -107 96 0 8 -7 17 -15 20 -8 4
-15 17 -15 29 0 13 -7 30 -15 39 -17 16 -21 121 -6 130 5 4 12 24 16 46 4 22
11 40 15 40 5 0 12 9 15 20 3 11 13 20 22 20 10 0 14 6 10 19 -3 14 0 17 14
14 12 -3 19 0 19 9 0 12 21 24 85 49 38 15 177 5 222 -16z m1891 -1 c23 -10
42 -25 42 -31 0 -7 7 -13 15 -13 8 0 15 -7 15 -15 0 -8 6 -15 14 -15 8 0 18
-9 21 -20 3 -11 10 -20 15 -20 4 0 11 -18 15 -40 4 -22 11 -42 16 -46 15 -9
11 -114 -6 -130 -8 -9 -15 -26 -15 -39 0 -12 -7 -25 -15 -29 -8 -3 -15 -13
-15 -23 -1 -19 -65 -73 -127 -104 -58 -30 -165 -28 -223 5 -25 14 -51 29 -58
32 -24 12 -62 54 -62 70 0 8 -7 17 -15 20 -8 4 -15 17 -15 29 0 13 -7 30 -15
39 -17 16 -21 121 -6 130 5 4 12 24 16 46 4 22 11 40 15 40 5 0 12 9 15 20 3
11 13 20 21 20 8 0 14 7 14 15 0 8 7 15 15 15 8 0 15 6 15 14 0 13 31 30 90
47 45 14 173 4 218 -17z m-691 -300 c9 -8 24 -14 33 -11 13 3 16 -1 12 -18 -2
-12 3 -29 12 -38 19 -19 23 -143 5 -149 -6 -2 -14 -28 -17 -58 -2 -30 -9 -58
-14 -61 -5 -3 -12 -26 -15 -50 -3 -24 -11 -58 -19 -76 -8 -17 -14 -45 -14 -61
0 -17 -5 -32 -11 -34 -5 -2 -13 -24 -16 -48 -2 -25 -11 -59 -19 -77 -8 -17
-14 -47 -14 -67 0 -20 -4 -36 -9 -36 -6 0 -13 -21 -16 -47 -3 -27 -10 -55 -14
-63 -5 -9 -11 -29 -15 -45 -5 -26 -2 -33 23 -50 16 -10 40 -36 53 -57 13 -21
26 -38 31 -38 4 0 7 -8 7 -19 0 -10 7 -24 15 -31 8 -7 15 -25 15 -41 0 -15 7
-34 15 -43 20 -20 20 -143 0 -182 -8 -16 -15 -39 -15 -50 0 -12 -7 -27 -15
-34 -8 -7 -15 -20 -15 -30 0 -10 -7 -20 -15 -24 -8 -3 -15 -12 -15 -21 0 -8
-4 -15 -9 -15 -5 0 -12 -11 -15 -25 -4 -14 -14 -25 -22 -25 -9 0 -33 -13 -54
-30 -21 -16 -45 -30 -53 -30 -8 0 -20 -6 -26 -14 -7 -8 -39 -17 -71 -21 -33
-4 -63 -11 -66 -16 -7 -12 -51 -12 -59 0 -3 5 -31 13 -63 17 -38 4 -72 16
-100 35 -24 16 -47 29 -53 29 -5 0 -9 4 -9 9 0 5 -10 13 -22 17 -27 8 -57 43
-58 67 0 10 -6 20 -14 23 -8 3 -18 19 -21 35 -4 16 -11 29 -16 29 -5 0 -9 10
-9 23 0 12 -7 35 -15 51 -20 39 -20 162 0 182 8 9 15 27 15 42 0 15 7 36 15
46 8 11 15 28 15 38 0 10 5 18 10 18 6 0 13 7 17 16 13 34 86 95 136 115 15 6
27 15 27 20 0 5 10 9 23 9 13 0 32 7 43 15 10 8 31 15 47 15 25 0 27 3 27 39
0 22 5 41 10 43 6 2 13 21 16 43 3 22 12 54 20 72 8 17 14 44 14 61 0 16 7 43
15 58 8 16 15 46 15 67 0 20 4 37 9 37 6 0 13 21 16 48 4 26 13 61 21 79 8 17
14 42 14 56 0 14 7 38 15 53 8 16 15 41 15 55 0 15 7 40 15 55 8 16 15 37 15
47 0 19 27 50 53 60 9 3 17 11 17 17 0 17 129 12 147 -6z m-1651 -629 c9 -8
24 -15 33 -15 10 0 24 -7 31 -15 7 -8 19 -15 26 -15 8 0 14 -7 14 -15 0 -8 7
-15 15 -15 8 0 15 -7 15 -15 0 -8 5 -15 11 -15 5 0 15 -13 20 -30 6 -16 15
-30 20 -30 5 0 9 -44 9 -98 0 -119 -10 -145 -90 -224 -55 -54 -60 -56 -124
-63 -86 -9 -193 2 -200 21 -3 8 -15 14 -26 14 -11 0 -20 3 -20 8 0 4 -16 24
-35 44 -19 20 -35 44 -35 53 0 8 -7 18 -15 21 -12 5 -15 27 -15 115 0 60 4
109 9 109 5 0 14 14 20 30 5 17 15 30 20 30 6 0 11 7 11 15 0 8 7 15 15 15 8
0 15 7 15 15 0 8 7 15 15 15 9 0 18 7 21 15 4 8 17 15 30 15 13 0 29 7 36 15
18 20 154 21 174 0z m2704 0 c7 -8 23 -15 35 -15 13 0 25 -7 29 -15 3 -8 12
-15 21 -15 8 0 15 -7 15 -15 0 -8 7 -15 15 -15 8 0 15 -7 15 -15 0 -8 4 -15 9
-15 5 0 19 -19 30 -43 28 -58 30 -211 4 -255 -26 -42 -91 -112 -105 -112 -6 0
-19 -7 -28 -15 -21 -19 -113 -29 -195 -20 -65 7 -68 8 -131 70 -35 34 -64 70
-64 79 0 9 -4 16 -10 16 -6 0 -10 43 -10 110 0 61 4 110 9 110 5 0 14 14 20
30 5 17 15 30 20 30 6 0 11 7 11 15 0 8 7 15 15 15 8 0 15 7 15 15 0 8 7 15
15 15 9 0 18 7 21 15 4 8 17 15 30 15 13 0 29 7 36 15 19 21 161 21 178 0z
m-975 -95 c3 -5 -3 -10 -15 -10 -12 0 -18 5 -15 10 3 6 10 10 15 10 5 0 12 -4
15 -10z m-630 -120 c3 -5 -3 -10 -15 -10 -12 0 -18 5 -15 10 3 6 10 10 15 10
5 0 12 -4 15 -10z"/>
</g>
</svg>
