<?xml version="1.0" standalone="no"?>
<!DOCTYPE svg PUBLIC "-//W3C//DTD SVG 20010904//EN"
 "http://www.w3.org/TR/2001/REC-SVG-20010904/DTD/svg10.dtd">
<svg version="1.0" xmlns="http://www.w3.org/2000/svg"
 width="900.000000pt" height="900.000000pt" viewBox="0 0 900.000000 900.000000"
 preserveAspectRatio="xMidYMid meet">
<metadata>
Created by potrace 1.10, written by Peter Selinger 2001-2011
</metadata>
<g transform="translate(0.000000,900.000000) scale(0.100000,-0.100000)"
fill="#000000" stroke="none" fill-opacity="0.1">
<path d="M2668 5867 c-20 -16 -28 -32 -28 -54 0 -18 -4 -35 -10 -38 -6 -4 -10
-103 -10 -265 0 -162 4 -261 10 -265 6 -3 10 -21 10 -38 0 -20 9 -40 24 -54
l23 -22 1766 -5 c971 -3 1788 -1 1815 3 37 6 57 16 76 37 l25 29 0 313 0 314
-37 34 -37 34 -1800 0 -1800 -1 -27 -22z m2734 -79 c-9 -9 -15 -9 -24 0 -9 9
-7 12 12 12 19 0 21 -3 12 -12z m717 -132 c8 -9 11 -63 9 -157 l-3 -144 -360
-5 c-198 -3 -385 -3 -415 0 l-55 5 0 150 0 150 65 5 c36 3 219 6 407 7 274 2
344 -1 352 -11z"/>
<path d="M2668 4787 c-22 -17 -28 -31 -28 -60 0 -20 -4 -37 -10 -37 -6 0 -10
-93 -10 -259 0 -163 4 -262 10 -266 6 -3 10 -21 10 -38 0 -21 9 -40 27 -57
l26 -25 1746 -3 c960 -2 1774 0 1809 3 53 6 67 11 92 38 l30 32 0 314 0 315
-36 33 -37 33 -1801 0 -1801 -1 -27 -22z m3440 -206 l23 -1 -3 -152 -3 -153
-1050 -5 c-577 -3 -1068 -3 -1090 0 l-40 5 0 150 0 150 29 5 c23 4 2037 5
2134 1z"/>
<path d="M2668 3707 c-20 -16 -28 -32 -28 -54 0 -18 -4 -35 -10 -38 -6 -4 -10
-105 -10 -270 0 -165 4 -266 10 -270 6 -3 10 -18 10 -33 0 -16 11 -37 27 -52
l26 -25 1736 -2 c955 -2 1769 0 1809 3 65 5 76 9 102 37 l30 32 0 314 0 315
-36 33 -37 33 -1801 0 -1801 -1 -27 -22z m3453 -214 c6 -6 8 -67 7 -154 l-3
-144 -685 0 -685 0 0 150 0 150 45 5 c89 10 1310 4 1321 -7z"/>
</g>
</svg>
