<?xml version="1.0" standalone="no"?>
<!DOCTYPE svg PUBLIC "-//W3C//DTD SVG 20010904//EN"
 "http://www.w3.org/TR/2001/REC-SVG-20010904/DTD/svg10.dtd">
<svg version="1.0" xmlns="http://www.w3.org/2000/svg"
 width="900.000000pt" height="900.000000pt" viewBox="0 0 900.000000 900.000000"
 preserveAspectRatio="xMidYMid meet">
<metadata>
Created by potrace 1.10, written by Peter Selinger 2001-2011
</metadata>
<g transform="translate(0.000000,900.000000) scale(0.100000,-0.100000)"
fill="#000000" stroke="none" fill-opacity="0.25">
<path d="M2910 5592 c-8 -3 -42 -32 -74 -64 -32 -32 -63 -58 -67 -58 -5 0 -9
-7 -9 -14 0 -16 816 -836 831 -836 5 0 9 -16 9 -35 0 -30 -13 -47 -120 -153
-66 -66 -120 -123 -120 -128 0 -4 -135 -142 -300 -306 -165 -164 -300 -303
-300 -309 0 -21 137 -149 159 -149 22 0 61 32 61 50 0 6 4 10 9 10 13 0 171
158 171 171 0 5 5 9 10 9 13 0 50 37 50 50 0 6 7 10 15 10 8 0 15 7 15 15 0 8
4 15 10 15 12 0 80 68 80 80 0 6 4 10 9 10 6 0 46 36 90 81 45 44 81 84 81 90
0 5 4 9 9 9 13 0 141 128 141 141 0 5 7 9 15 9 8 0 15 7 15 15 0 8 5 15 10 15
13 0 50 37 50 50 0 6 4 10 10 10 5 0 25 16 45 35 19 20 35 40 35 45 0 6 7 10
15 10 8 0 15 7 15 15 0 8 7 15 15 15 8 0 15 7 15 15 0 8 6 15 14 15 8 0 17 12
21 27 6 24 -31 63 -492 525 -274 275 -505 503 -513 507 -8 5 -22 6 -30 3z
m160 -234 c0 -17 -3 -19 -9 -9 -5 7 -15 17 -22 22 -10 6 -8 9 9 9 16 0 22 -6
22 -22z"/>
<path d="M4102 3587 c-18 -19 -22 -35 -22 -94 0 -84 6 -103 31 -103 10 0 19
-4 19 -10 0 -7 344 -10 1013 -10 l1012 0 28 23 c22 18 28 33 33 84 6 53 4 66
-15 97 l-22 36 -1028 0 -1028 0 -21 -23z"/>
</g>
</svg>
