<?xml version="1.0" standalone="no"?>
<!DOCTYPE svg PUBLIC "-//W3C//DTD SVG 20010904//EN"
 "http://www.w3.org/TR/2001/REC-SVG-20010904/DTD/svg10.dtd">
<svg version="1.0" xmlns="http://www.w3.org/2000/svg"
 width="900.000000pt" height="900.000000pt" viewBox="0 0 900.000000 900.000000"
 preserveAspectRatio="xMidYMid meet">
<metadata>
Created by potrace 1.10, written by Peter Selinger 2001-2011
</metadata>
<g transform="translate(0.000000,900.000000) scale(0.100000,-0.100000)"
fill="#000000" stroke="none" fill-opacity="0.05">
<path d="M3230 6362 c-25 -2 -49 -7 -54 -13 -6 -5 -24 -9 -41 -9 -17 0 -40 -7
-51 -15 -10 -8 -25 -15 -32 -15 -27 0 -202 -145 -202 -166 0 -3 -13 -26 -30
-51 -16 -24 -30 -53 -30 -64 0 -11 -7 -31 -16 -44 -13 -19 -15 -49 -12 -161 2
-99 7 -139 16 -142 6 -2 12 -17 12 -32 0 -16 5 -32 11 -35 5 -4 14 -17 20 -28
20 -47 117 -157 138 -157 6 0 11 -5 11 -10 0 -6 10 -15 23 -20 12 -6 29 -14
37 -19 53 -30 82 -41 107 -41 16 0 34 -5 40 -10 5 -6 50 -11 98 -11 48 0 93 5
98 11 6 5 23 10 39 10 28 0 108 36 120 54 4 6 15 11 25 11 11 0 17 7 17 17 -1
9 4 14 11 12 13 -6 85 59 85 76 0 6 6 10 14 10 7 0 17 8 20 18 9 23 31 61 45
75 6 6 11 23 11 38 0 15 6 29 13 31 20 7 23 269 3 309 -9 18 -16 39 -16 49 0
9 -5 21 -11 27 -14 14 -36 52 -45 76 -3 9 -13 17 -20 17 -8 0 -14 6 -14 13 0
15 -24 36 -63 56 -15 8 -27 19 -27 25 0 12 -72 56 -90 56 -6 0 -18 7 -26 15
-9 8 -30 15 -48 15 -17 0 -36 4 -41 9 -12 11 -84 17 -145 13z"/>
<path d="M5655 6362 c-22 -2 -44 -8 -49 -13 -6 -5 -27 -9 -48 -9 -25 0 -41 -5
-44 -15 -4 -8 -15 -15 -25 -15 -39 0 -209 -142 -209 -174 0 -8 -3 -16 -7 -18
-18 -8 -53 -69 -53 -93 0 -15 -7 -34 -16 -42 -13 -13 -15 -39 -12 -156 2 -101
7 -142 16 -145 6 -2 12 -17 12 -32 0 -16 5 -32 11 -35 5 -4 14 -17 20 -28 20
-47 117 -157 138 -157 6 0 11 -4 11 -9 0 -14 139 -81 169 -81 15 0 32 -5 38
-10 5 -6 50 -11 98 -11 48 0 93 5 98 11 6 5 23 10 38 10 30 0 169 67 169 81 0
5 4 9 9 9 14 0 81 65 81 79 0 6 6 11 14 11 7 0 17 8 20 18 9 23 31 61 45 75 6
6 11 23 11 38 0 15 6 29 13 31 20 7 23 269 3 309 -9 18 -16 38 -16 46 0 14
-39 76 -52 81 -5 2 -8 12 -8 23 0 10 -7 19 -15 19 -8 0 -15 5 -15 10 0 11 -36
50 -46 50 -4 0 -16 10 -28 23 -33 33 -83 67 -101 67 -9 0 -23 7 -31 15 -9 8
-30 15 -48 15 -17 0 -36 4 -41 9 -12 10 -93 17 -150 13z"/>
<path d="M4465 5820 c-11 -4 -32 -5 -47 -3 -16 3 -34 1 -40 -5 -7 -5 -40 -12
-72 -14 -33 -3 -62 -10 -64 -16 -2 -7 -16 -12 -32 -12 -16 0 -35 -7 -44 -15
-8 -8 -21 -15 -29 -15 -8 0 -20 -7 -27 -15 -7 -8 -20 -15 -29 -15 -9 0 -28
-13 -41 -30 -14 -16 -30 -29 -35 -30 -13 0 -135 -122 -135 -135 -1 -6 -14 -21
-30 -35 -17 -13 -30 -32 -30 -41 0 -9 -7 -22 -15 -29 -8 -7 -15 -19 -15 -27 0
-8 -7 -21 -15 -29 -8 -9 -15 -24 -15 -34 0 -10 -7 -31 -15 -46 -8 -16 -15 -50
-15 -76 0 -26 -4 -50 -10 -53 -6 -4 -10 -53 -10 -115 0 -62 4 -111 10 -115 6
-3 10 -27 10 -53 0 -26 7 -60 15 -76 8 -15 15 -36 15 -46 0 -10 7 -25 15 -34
8 -8 15 -21 15 -29 0 -8 7 -20 15 -27 8 -7 15 -19 15 -27 0 -16 17 -36 119
-145 35 -37 69 -68 75 -68 6 -1 22 -14 36 -30 13 -17 32 -30 41 -30 9 0 22 -7
29 -15 7 -8 21 -15 31 -15 11 0 19 -4 19 -10 0 -5 12 -12 28 -16 15 -3 41 -12
57 -19 17 -8 50 -14 73 -13 23 0 49 -5 57 -12 19 -16 212 -17 228 -1 6 6 31
11 56 11 26 0 59 7 75 15 15 8 36 15 46 15 10 0 25 7 34 15 8 8 21 15 29 15 8
0 20 7 27 15 7 8 20 15 29 15 21 0 64 46 56 60 -4 6 1 7 10 3 12 -4 36 14 81
58 35 35 64 68 64 74 1 5 14 21 30 35 17 13 30 32 30 41 0 9 7 22 15 29 8 7
15 19 15 27 0 8 7 21 15 29 8 9 15 28 15 44 0 16 5 30 12 32 6 2 13 32 16 69
3 35 9 67 14 70 13 8 13 210 0 218 -5 3 -11 35 -14 70 -3 36 -10 67 -16 69 -6
2 -14 19 -18 38 -3 19 -10 37 -15 40 -5 3 -9 13 -9 23 0 10 -7 24 -15 31 -8 7
-15 20 -15 29 0 9 -13 28 -30 41 -16 14 -29 30 -30 35 0 13 -122 135 -135 135
-6 1 -21 14 -35 30 -13 17 -32 30 -41 30 -9 0 -22 7 -29 15 -7 8 -21 15 -31
15 -10 0 -20 4 -23 9 -3 5 -21 12 -40 15 -19 4 -36 11 -38 17 -2 6 -24 12 -48
15 -25 3 -61 9 -80 14 -55 14 -123 19 -145 10z"/>
<path d="M2693 5283 c-13 -2 -23 -9 -23 -14 0 -5 -5 -9 -10 -9 -24 0 -110
-120 -110 -154 0 -7 -7 -27 -15 -42 -8 -16 -15 -54 -15 -84 0 -32 -7 -63 -15
-74 -12 -16 -15 -61 -15 -233 0 -197 2 -215 21 -253 12 -22 35 -53 51 -68 17
-15 38 -35 46 -44 9 -10 26 -18 38 -18 12 0 24 -5 26 -11 2 -6 26 -13 53 -16
28 -3 53 -10 57 -16 3 -6 80 -12 182 -15 l176 -5 60 62 c33 33 64 61 70 61 5
0 14 9 20 20 6 11 20 20 30 20 11 0 20 4 20 9 0 5 8 11 18 15 9 3 24 10 32 15
28 18 83 41 99 41 9 0 29 7 45 15 16 9 55 15 93 15 l65 0 -24 33 c-14 17 -28
42 -32 55 -4 12 -12 22 -17 22 -5 0 -9 11 -9 24 0 14 -7 31 -15 40 -8 8 -15
25 -15 38 0 13 -6 33 -14 43 -8 11 -17 51 -21 88 -4 37 -12 67 -17 67 -5 0 -8
48 -7 112 1 75 -2 113 -10 116 -6 2 -25 -4 -42 -12 -45 -22 -354 -23 -383 -1
-11 8 -30 15 -42 15 -12 0 -37 8 -56 17 -18 9 -45 22 -60 30 -14 7 -33 13 -41
13 -8 0 -20 7 -27 15 -7 8 -20 15 -30 15 -10 0 -23 7 -30 15 -7 8 -20 15 -30
15 -10 0 -23 7 -30 15 -7 8 -15 14 -19 14 -3 -1 -16 -4 -28 -6z"/>
<path d="M6240 5275 c-7 -8 -20 -15 -30 -15 -10 0 -23 -7 -30 -15 -7 -8 -20
-15 -30 -15 -10 0 -23 -7 -30 -15 -7 -8 -19 -15 -27 -15 -8 0 -27 -6 -41 -13
-15 -8 -42 -21 -60 -30 -19 -9 -44 -17 -57 -17 -13 0 -30 -7 -39 -15 -12 -12
-48 -15 -194 -15 -115 0 -182 4 -184 10 -2 6 -16 12 -32 13 l-28 2 2 -112 c0
-68 -3 -113 -9 -113 -5 0 -13 -30 -17 -67 -4 -37 -13 -74 -21 -82 -9 -9 -13
-27 -11 -48 3 -26 0 -37 -14 -44 -10 -5 -18 -18 -18 -28 0 -10 -7 -24 -15 -31
-9 -7 -14 -20 -13 -29 2 -9 -10 -30 -25 -46 l-27 -30 62 -3 c35 -1 77 -9 95
-17 17 -8 38 -15 45 -15 14 0 67 -22 98 -40 8 -5 35 -19 59 -32 24 -13 46 -28
48 -35 3 -7 9 -13 14 -13 5 0 36 -28 69 -61 l60 -62 174 5 c97 3 181 9 188 15
7 6 33 13 58 16 24 3 46 11 48 16 2 6 15 11 28 11 14 0 27 7 30 15 4 8 10 15
15 15 12 0 49 37 49 49 0 5 7 11 15 15 8 3 15 13 15 21 0 9 7 23 15 32 14 13
16 49 15 232 -1 155 -5 222 -14 236 -7 11 -15 54 -18 95 -3 41 -11 76 -17 78
-6 2 -11 12 -11 23 0 27 -39 96 -66 118 -13 10 -24 24 -24 30 0 6 -9 11 -19
11 -11 0 -21 4 -23 9 -6 17 -45 22 -58 6z"/>
<path d="M3566 4315 c-15 -8 -38 -15 -51 -15 -12 0 -28 -7 -35 -15 -7 -8 -21
-15 -32 -15 -10 0 -21 -7 -24 -15 -4 -8 -11 -15 -18 -15 -6 0 -19 -8 -28 -17
-24 -25 -40 -38 -60 -46 -10 -3 -18 -13 -18 -20 0 -8 -13 -27 -30 -43 -16 -16
-30 -34 -30 -40 0 -7 -7 -14 -15 -18 -8 -3 -15 -16 -15 -30 0 -13 -7 -26 -15
-30 -8 -3 -15 -14 -15 -24 0 -11 -7 -25 -15 -32 -8 -7 -15 -23 -15 -36 0 -13
-4 -24 -10 -24 -5 0 -12 -17 -16 -37 -4 -21 -11 -43 -16 -49 -5 -7 -11 -36
-15 -65 -3 -30 -10 -57 -16 -60 -5 -4 -11 -37 -14 -75 -2 -38 -10 -80 -16 -93
-17 -35 -17 -523 1 -529 6 -2 12 -16 12 -32 0 -16 7 -35 15 -44 8 -8 15 -22
15 -31 0 -8 7 -18 15 -21 8 -4 15 -11 15 -18 1 -24 112 -126 138 -126 5 0 12
-7 16 -15 3 -8 17 -15 31 -15 15 0 33 -7 41 -15 9 -9 33 -15 58 -15 23 0 48
-6 55 -12 9 -10 229 -13 1031 -13 802 0 1022 3 1031 13 7 6 31 12 54 12 23 0
50 7 61 15 10 8 29 15 42 15 12 0 25 7 28 15 4 8 12 15 18 15 18 0 136 109
136 125 0 7 7 15 15 19 8 3 15 13 15 21 0 9 7 23 15 31 8 9 15 27 15 40 0 14
7 36 16 49 14 21 15 58 12 269 -2 179 -6 248 -15 258 -7 6 -13 28 -13 48 0 59
-12 111 -24 107 -7 -3 -11 15 -11 51 0 35 -5 57 -12 60 -7 2 -13 18 -13 36 0
18 -7 41 -15 52 -8 10 -15 29 -15 40 0 12 -7 27 -15 34 -8 7 -15 20 -15 30 0
10 -7 23 -15 30 -8 7 -15 21 -15 32 0 10 -7 21 -15 24 -8 4 -15 12 -15 18 0 7
-13 25 -30 41 -16 16 -30 33 -30 38 0 16 -44 57 -61 57 -9 0 -19 7 -23 15 -3
8 -12 15 -20 15 -7 0 -16 7 -20 15 -3 8 -14 15 -24 15 -11 0 -25 7 -32 15 -7
8 -23 15 -35 15 -13 0 -36 7 -51 15 -45 23 -174 20 -224 -6 -22 -12 -40 -25
-40 -30 0 -5 -8 -9 -18 -9 -10 0 -25 -8 -34 -17 -26 -28 -43 -40 -66 -47 -12
-4 -22 -12 -22 -17 0 -5 -9 -9 -19 -9 -11 0 -22 -4 -25 -9 -8 -12 -83 -47
-118 -55 -16 -4 -28 -11 -28 -16 0 -6 -15 -10 -33 -10 -18 0 -42 -7 -55 -15
-12 -9 -50 -18 -84 -20 -35 -2 -93 -9 -130 -15 -49 -8 -72 -8 -88 0 -11 6 -53
13 -92 15 -39 3 -75 9 -78 15 -4 7 -27 14 -51 17 -24 4 -50 12 -57 20 -7 7
-23 13 -35 13 -12 0 -31 7 -41 15 -11 8 -28 15 -38 15 -10 0 -18 4 -18 8 0 5
-17 16 -37 25 -41 18 -76 42 -101 70 -9 9 -24 17 -34 17 -10 0 -18 4 -18 9 0
5 -18 18 -40 30 -50 26 -179 29 -224 6z m314 -125 c0 -11 -2 -20 -3 -20 -2 0
-12 9 -22 20 -18 19 -17 20 3 20 15 0 22 -6 22 -20z"/>
</g>
</svg>
